<svg width="293" height="134" viewBox="0 0 293 134" fill="none" xmlns="http://www.w3.org/2000/svg">
<path d="M41.3877 80.6509C40.5755 80.6509 39.8556 80.4543 39.2279 80.0606C38.6003 80.4543 38.0157 80.6509 37.4742 80.6509C36.945 80.6509 36.5081 80.6019 36.1635 80.5033C35.8189 80.4171 35.5174 80.2943 35.259 80.1344C34.7298 79.8144 34.4652 79.4148 34.4652 78.9354C34.4652 78.6893 34.5328 78.4744 34.6682 78.2896C34.939 78.4986 35.2836 78.6031 35.702 78.6031C36.7973 78.6031 37.5542 78.1362 37.9726 77.2011V68.1806C37.9726 67.6269 37.8557 67.2031 37.6219 66.9079C37.2527 66.428 36.6189 65.9729 35.7205 65.5425C36.545 65.1612 37.0865 64.8294 37.345 64.5467C37.7634 64.0668 37.9726 63.5319 37.9726 62.9416V55.1569C37.5542 54.21 36.7973 53.7365 35.702 53.7365C35.2836 53.7365 34.939 53.841 34.6682 54.0501C34.5328 53.8656 34.4652 53.6566 34.4652 53.4229C34.4652 53.1769 34.5328 52.9494 34.6682 52.7404C34.8159 52.5313 35.0128 52.353 35.259 52.2054C35.8251 51.8611 36.4712 51.6889 37.1973 51.6889C37.9357 51.6889 38.6126 51.8918 39.2279 52.2977C39.8679 51.8918 40.5816 51.6889 41.3693 51.6889C42.2308 51.6889 42.9815 51.9164 43.6215 52.3715C44.9875 51.7934 46.3474 51.5044 47.7011 51.5044C49.0549 51.5044 50.2856 51.6397 51.3932 51.9102C52.5131 52.1685 53.5223 52.5374 54.4206 53.0171C56.3774 54.0501 57.5958 55.3906 58.0758 57.0385C58.3465 57.9486 58.9311 58.625 59.8293 59.0674C58.8327 59.7563 58.2173 60.5432 57.9834 61.4287C57.4665 63.372 56.4205 64.6388 54.8453 65.2291C57.1589 65.8684 58.6665 67.3813 59.368 69.7674C59.6143 70.6156 60.1985 71.3104 61.1218 71.8517C60.1743 72.3807 59.5405 73.1799 59.2203 74.2496C58.9003 75.3198 58.3342 76.285 57.522 77.1462C56.722 77.9945 55.7867 78.6952 54.716 79.2489C52.6485 80.3067 50.3163 80.8356 47.7196 80.8356C46.1689 80.8356 44.7844 80.5588 43.5661 80.0051C42.9261 80.4354 42.2 80.6509 41.3877 80.6509ZM48.218 64.3436C49.301 64.3436 50.0702 64.0851 50.5255 63.5691C51.0055 63.0402 51.2455 62.13 51.2455 60.8384V56.5774C51.2455 55.8272 50.8517 55.1938 50.064 54.6773C49.3748 54.2223 48.7349 53.9948 48.1442 53.9948C47.5657 53.9948 47.0858 54.0686 46.7043 54.2162C46.3351 54.3514 46.0028 54.542 45.7074 54.788C45.0798 55.3045 44.7659 55.9256 44.7659 56.6512V64.3436H48.218ZM52.2977 54.4191C52.7162 55.3537 52.9254 56.7188 52.9254 58.5143C52.9254 61.1583 52.7531 62.8737 52.4085 63.6612C52.9254 63.5626 53.3622 63.0644 53.7192 62.1666C53.8545 61.8348 53.953 61.4842 54.0145 61.1152C54.0884 60.7463 54.1437 60.4635 54.1807 60.2669C54.2299 60.058 54.2976 59.8797 54.3837 59.7321C54.5683 59.4246 54.9006 59.1908 55.3806 59.0308C54.8883 58.871 54.5806 58.6988 54.4576 58.5143C54.2976 58.3052 54.1683 57.924 54.0699 57.3706C53.9714 56.8172 53.8545 56.3683 53.7192 56.0239C53.5838 55.6673 53.4361 55.3783 53.2761 55.1569C52.9685 54.7142 52.6423 54.4682 52.2977 54.4191ZM39.7448 75.3936C40.3601 75.1598 40.6985 74.3541 40.7601 72.9769C40.8339 71.5997 40.8709 69.693 40.8709 67.2586C40.8709 64.8229 40.8647 63.2061 40.8524 62.4068C40.8524 61.5951 40.8462 60.9434 40.8339 60.4511C40.797 59.0001 40.6555 58.127 40.4093 57.8318C40.1755 57.5243 39.954 57.3214 39.7448 57.223C39.7448 61.503 39.6709 63.9375 39.5232 64.5278C39.351 65.0201 38.9325 65.3707 38.2679 65.5797C39.0064 65.8377 39.4248 66.1511 39.5232 66.5207C39.6709 67.111 39.7448 69.2691 39.7448 72.9952V75.3936ZM44.7659 75.4674C44.7659 76.328 45.0921 77.0352 45.7444 77.5889C46.372 78.1049 47.1227 78.3634 47.9965 78.3634C48.8457 78.3634 49.5594 78.1793 50.1379 77.8097C51.2455 77.0842 51.7993 76.2543 51.7993 75.3198V69.9149C51.7993 68.7957 51.4362 67.9533 50.7102 67.3872C50.0948 66.9079 49.2887 66.6682 48.2919 66.6682H44.7659V75.4674ZM53.0361 67.2397C53.3315 67.9038 53.4791 69.4409 53.4791 71.8517C53.4791 74.9013 53.3684 76.6911 53.1469 77.2194C53.4053 77.1704 53.6699 76.857 53.9407 76.279C54.2114 75.7011 54.4022 75.1043 54.5129 74.4898C54.6237 73.8747 54.6976 73.4568 54.7344 73.2348C54.7837 73.0141 54.8514 72.8169 54.9375 72.6445C55.1344 72.2762 55.4667 72.0117 55.9344 71.8517C55.196 71.618 54.7591 71.1505 54.6237 70.4498C54.5006 69.7485 54.3776 69.2078 54.2545 68.8264C54.1314 68.4451 54.0022 68.144 53.8668 67.9221C53.633 67.5289 53.3561 67.3011 53.0361 67.2397ZM59.593 80.1527C59.1376 80.485 58.6148 80.6509 58.0241 80.6509C57.4456 80.6509 56.9842 80.5033 56.6395 80.2081C56.2827 79.9006 56.1042 79.5499 56.1042 79.1568C56.1042 78.7631 56.1658 78.4744 56.2888 78.2896C56.6457 78.4986 57.0826 78.6031 57.5995 78.6031C58.1287 78.6031 58.5225 78.5358 58.7809 78.4C59.0517 78.2525 59.3101 78.0559 59.5564 77.8097L62.1775 70.0436L62.5467 68.7709C62.6577 68.3896 62.7127 68.0389 62.7127 67.7196C62.7127 66.6004 62.184 65.8873 61.1254 65.5797C62.0977 65.2108 62.7806 64.8111 63.1746 64.3802C63.7896 63.7043 64.2757 62.8124 64.6325 61.7055L66.6634 54.8987C66.2694 54.3699 65.8022 54.1054 65.2605 54.1054C64.7188 54.1054 64.2143 54.2223 63.7464 54.4559C63.6236 54.2346 63.5621 53.9886 63.5621 53.7181C63.5621 53.4352 63.6176 53.1708 63.7281 52.9248C63.8516 52.6789 64.0176 52.4637 64.2267 52.2792C64.6945 51.8856 65.3591 51.6889 66.2204 51.6889C67.0817 51.6889 67.8142 51.9471 68.4173 52.4637C69.0322 51.9471 69.7955 51.6889 70.7064 51.6889C71.6291 51.6889 72.3616 51.9349 72.9027 52.4268C73.6907 51.9349 74.4905 51.6889 75.3028 51.6889C76.115 51.6889 76.7424 51.8426 77.1854 52.1501C77.6409 52.4575 77.8689 52.8756 77.8689 53.4045C77.8689 53.6504 77.7951 53.8656 77.6474 54.0501C77.3644 53.841 77.0319 53.7365 76.6502 53.7365C75.8256 53.7365 75.2904 54.2961 75.0441 55.4152L77.407 62.9599C77.7023 63.9068 78.4407 64.6447 79.6222 65.1736C79.9548 65.3212 80.2933 65.4563 80.6376 65.5797C79.4072 65.9853 78.7916 66.5939 78.7916 67.4061C78.7916 67.7131 78.8412 67.984 78.9393 68.2172L82.4654 77.6621C83.0071 78.2282 83.5547 78.511 84.1082 78.511C84.6623 78.511 85.0929 78.4065 85.4007 78.1976C85.5359 78.2955 85.6033 78.4803 85.6033 78.7507C85.6033 79.0216 85.5608 79.2737 85.4745 79.5075C85.3883 79.7282 85.253 79.9254 85.0681 80.0978C84.6747 80.4661 84.0958 80.6509 83.3331 80.6509C82.5699 80.6509 81.9053 80.4419 81.3394 80.0234C80.6991 80.4419 79.9731 80.6509 79.1608 80.6509C78.361 80.6509 77.6716 80.4478 77.0933 80.0423C76.5398 80.4478 75.8876 80.6509 75.1368 80.6509C74.386 80.6509 73.7646 80.4974 73.2719 80.1898C72.7798 79.8699 72.5217 79.4213 72.4968 78.8428C72.4968 78.4986 72.5648 78.2837 72.7001 78.1976C73.0321 78.4065 73.3705 78.511 73.7149 78.511C74.4415 78.511 74.9519 78.3634 75.2473 78.0683L73.8443 73.3641H63.8575L62.6388 77.4414C63.1439 78.2159 63.7529 78.6031 64.4665 78.6031C65.1925 78.6031 65.7342 78.4986 66.091 78.2896C66.2263 78.511 66.2942 78.8186 66.2942 79.2123C66.2942 79.593 66.1034 79.9313 65.7218 80.2264C65.3402 80.5092 64.8481 80.6509 64.245 80.6509C63.6419 80.6509 63.0884 80.4974 62.5839 80.1898C62.1408 80.4974 61.6299 80.6509 61.0515 80.6509C60.4856 80.6509 59.9995 80.485 59.593 80.1527ZM73.0876 70.8736L68.8048 56.6512L64.5959 70.8736H73.0876ZM76.6136 75.3936C76.8351 75.3936 76.9456 75.1474 76.9456 74.6557C76.9456 73.7944 76.8162 72.9586 76.5581 72.1469L75.8563 69.9881C75.3642 68.3648 75.1179 67.3441 75.1179 66.9262C75.1061 66.2373 75.4074 65.7828 76.0229 65.5608C75.1734 65.389 74.6565 65.1246 74.4722 64.768C74.386 64.6205 74.3122 64.5036 74.2507 64.4174C74.2011 64.3312 74.1462 64.2326 74.0841 64.1222C74.0351 63.9995 73.9737 63.8454 73.8998 63.6612C73.826 63.4764 73.7273 63.212 73.6045 62.8678L72.4596 59.4181C72.1891 58.5574 71.7892 57.9056 71.2599 57.4629C71.0998 57.3276 70.9521 57.2476 70.8168 57.223C71.6415 60.1991 72.1832 62.1052 72.4413 62.9416C74.2259 68.4268 75.2969 71.6794 75.6537 72.7L76.6136 75.3936ZM82.0589 77.0535L82.0962 77.1645L82.0589 77.0535ZM90.9606 80.0606C90.3332 80.4543 89.619 80.6509 88.8192 80.6509C88.0194 80.6509 87.3058 80.4543 86.6778 80.0606C86.0505 80.4543 85.4656 80.6509 84.924 80.6509C84.3953 80.6509 83.9581 80.6019 83.6137 80.5033C83.2687 80.4171 82.9675 80.2943 82.7087 80.1344C82.18 79.8144 81.9154 79.4148 81.9154 78.9354C81.9154 78.6893 81.9827 78.4744 82.118 78.2896C82.3891 78.4986 82.7335 78.6031 83.1518 78.6031C84.2476 78.6031 85.0043 78.1362 85.4225 77.2011V68.1806C85.4225 67.6151 85.3056 67.1966 85.0716 66.9262C84.7024 66.4711 84.0692 66.0224 83.1707 65.5797C84.0072 65.1984 84.5488 64.8601 84.7952 64.565C85.2134 64.0851 85.4225 63.5443 85.4225 62.9416V55.1569C85.0043 54.21 84.2476 53.7365 83.1518 53.7365C82.7335 53.7365 82.3891 53.841 82.118 54.0501C81.9827 53.8656 81.9154 53.6566 81.9154 53.4229C81.9154 53.1769 81.9827 52.9494 82.118 52.7404C82.2657 52.5313 82.463 52.353 82.7087 52.2054C83.2752 51.8611 83.9215 51.6889 84.6475 51.6889C85.3859 51.6889 86.0629 51.8918 86.6778 52.2977C87.3182 51.8918 88.0318 51.6889 88.8192 51.6889C89.6072 51.6889 90.3208 51.8918 90.9606 52.2977C92.3512 51.7688 93.89 51.5044 95.5759 51.5044C97.2743 51.5044 98.6955 51.6581 99.8398 51.9656C100.985 52.273 101.969 52.7096 102.793 53.2753C104.455 54.4191 105.489 56.0116 105.895 58.0532C106.055 58.9632 106.64 59.6518 107.649 60.1194C106.689 60.6601 106.061 61.5213 105.766 62.702C105.163 65.137 103.655 66.6559 101.243 67.2586C102.486 67.5903 103.501 68.2727 104.289 69.3057C105.101 70.376 105.507 71.6363 105.507 73.0873V74.9326C105.507 76.7035 106.08 77.8469 107.224 78.3634C107.569 78.5234 107.944 78.6031 108.35 78.6031C108.756 78.6031 109.095 78.4986 109.365 78.2896C109.501 78.4744 109.568 78.6893 109.568 78.9354C109.568 79.1692 109.507 79.3906 109.384 79.5995C109.261 79.8085 109.095 79.9868 108.886 80.1344C108.443 80.4785 107.926 80.6509 107.335 80.6509C106.744 80.6509 106.166 80.4909 105.599 80.171C104.566 80.7371 103.6 80.7925 102.701 80.3374C102.357 80.5464 101.994 80.6509 101.612 80.6509C101.231 80.6509 100.862 80.5647 100.504 80.3929C100.16 80.2205 99.8522 79.9378 99.5816 79.544C99.0033 78.6952 98.7139 77.3918 98.7139 75.6333V74.2679C98.7139 71.4273 97.9016 69.5826 96.2771 68.7343C95.736 68.451 95.1022 68.3099 94.3756 68.3099H92.2159V77.2938C92.5485 78.1669 93.1823 78.6031 94.1174 78.6031C94.5357 78.6031 94.8806 78.4986 95.1512 78.2896C95.2865 78.4744 95.3544 78.7448 95.3544 79.1013C95.3544 79.4579 95.1571 79.8085 94.7637 80.1527C94.3821 80.485 93.8037 80.6509 93.0281 80.6509C92.2531 80.6509 91.5637 80.4543 90.9606 80.0606ZM95.7602 53.9578C93.3973 53.9578 92.2159 54.8741 92.2159 56.7065V64.2515C92.2159 64.8908 92.4681 65.3212 92.9726 65.5425C93.4529 65.7515 94.1605 65.856 95.0957 65.856C96.0432 65.856 96.7018 65.807 97.0711 65.7084C97.4527 65.598 97.7787 65.4132 98.0493 65.1553C98.6034 64.6264 98.8799 63.7409 98.8799 62.4989V57.1123C98.8799 55.5751 98.2401 54.5912 96.96 54.1608C96.579 54.0255 96.1791 53.9578 95.7602 53.9578ZM100.117 55.1385C100.498 55.9994 100.689 57.3767 100.689 59.2705C100.689 62.5296 100.536 64.4788 100.228 65.1181C100.905 64.9829 101.39 64.0792 101.686 62.4068L101.833 61.6506C101.969 60.8508 102.363 60.3407 103.015 60.1194C102.535 59.9594 102.227 59.7687 102.092 59.5474C101.945 59.2894 101.809 58.8525 101.686 58.2376C101.575 57.6104 101.458 57.1062 101.336 56.725C101.212 56.3437 101.083 56.0424 100.947 55.821C100.714 55.4275 100.437 55.2 100.117 55.1385ZM87.1947 75.3936C87.8102 75.1598 88.1487 74.3541 88.2102 72.9769C88.284 71.5997 88.3206 69.693 88.3206 67.2586C88.3206 64.8229 88.3147 63.2061 88.3023 62.4068C88.3023 61.5951 88.2964 60.9434 88.284 60.4511C88.2468 59.0001 88.1056 58.127 87.8593 57.8318C87.6253 57.5243 87.4038 57.3214 87.1947 57.223C87.1947 61.503 87.1209 63.9375 86.9732 64.5278C86.8013 65.0201 86.3825 65.3707 85.7179 65.5797C86.4563 65.8377 86.8751 66.1511 86.9732 66.5207C87.1209 67.111 87.1947 69.2691 87.1947 72.9952V75.3936ZM99.9325 70.3388C100.425 70.8925 100.671 71.569 100.671 72.3683V74.8033C100.671 76.8446 101.077 77.9331 101.889 78.0683C102.111 78.1049 102.326 78.099 102.535 78.05C102.092 77.3611 101.871 76.6356 101.871 75.8729V73.2903C101.871 72.3187 101.735 71.6304 101.464 71.2242C100.997 70.5359 100.486 70.2408 99.9325 70.3388ZM113.744 80.6509C112.932 80.6509 112.212 80.4543 111.585 80.0606C110.957 80.4543 110.372 80.6509 109.831 80.6509C109.301 80.6509 108.865 80.6019 108.52 80.5033C108.176 80.4171 107.874 80.2943 107.616 80.1344C107.086 79.8144 106.822 79.4148 106.822 78.9354C106.822 78.6893 106.89 78.4744 107.025 78.2896C107.295 78.4986 107.64 78.6031 108.059 78.6031C109.154 78.6031 109.91 78.1362 110.329 77.2011V68.1806C110.329 67.6269 110.212 67.2031 109.978 66.9079C109.609 66.428 108.975 65.9729 108.077 65.5425C108.902 65.1612 109.443 64.8294 109.701 64.5467C110.12 64.0668 110.329 63.5319 110.329 62.9416V55.1569C109.91 54.21 109.154 53.7365 108.059 53.7365C107.64 53.7365 107.295 53.841 107.025 54.0501C106.89 53.8656 106.822 53.6566 106.822 53.4229C106.822 53.1769 106.89 52.9494 107.025 52.7404C107.172 52.5313 107.369 52.353 107.616 52.2054C108.181 51.8611 108.828 51.6889 109.554 51.6889C110.292 51.6889 110.969 51.8918 111.585 52.2977C112.224 51.8918 112.938 51.6889 113.726 51.6889C114.587 51.6889 115.338 51.9164 115.978 52.3715C117.344 51.7934 118.704 51.5044 120.058 51.5044C121.411 51.5044 122.642 51.6397 123.75 51.9102C124.869 52.1685 125.879 52.5374 126.777 53.0171C128.734 54.0501 129.953 55.3906 130.432 57.0385C130.703 57.9486 131.288 58.625 132.186 59.0674C131.189 59.7563 130.574 60.5432 130.34 61.4287C129.823 63.372 128.777 64.6388 127.202 65.2291C129.515 65.8684 131.023 67.3813 131.725 69.7674C131.971 70.6156 132.555 71.3104 133.478 71.8517C132.531 72.3807 131.897 73.1799 131.577 74.2496C131.257 75.3198 130.691 76.285 129.879 77.1462C129.078 77.9945 128.143 78.6952 127.073 79.2489C125.005 80.3067 122.673 80.8356 120.076 80.8356C118.526 80.8356 117.141 80.5588 115.923 80.0051C115.283 80.4354 114.557 80.6509 113.744 80.6509ZM120.575 64.3436C121.658 64.3436 122.427 64.0851 122.882 63.5691C123.362 63.0402 123.602 62.13 123.602 60.8384V56.5774C123.602 55.8272 123.208 55.1938 122.421 54.6773C121.731 54.2223 121.092 53.9948 120.501 53.9948C119.922 53.9948 119.442 54.0686 119.061 54.2162C118.692 54.3514 118.36 54.542 118.064 54.788C117.436 55.3045 117.123 55.9256 117.123 56.6512V64.3436H120.575ZM124.654 54.4191C125.073 55.3537 125.282 56.7188 125.282 58.5143C125.282 61.1583 125.11 62.8737 124.765 63.6612C125.282 63.5626 125.719 63.0644 126.076 62.1666C126.211 61.8348 126.31 61.4842 126.371 61.1152C126.445 60.7463 126.5 60.4635 126.537 60.2669C126.587 60.058 126.654 59.8797 126.74 59.7321C126.925 59.4246 127.257 59.1908 127.737 59.0308C127.245 58.871 126.937 58.6988 126.814 58.5143C126.654 58.3052 126.525 57.924 126.427 57.3706C126.328 56.8172 126.211 56.3683 126.076 56.0239C125.94 55.6673 125.793 55.3783 125.633 55.1569C125.325 54.7142 124.999 54.4682 124.654 54.4191ZM112.101 75.3936C112.716 75.1598 113.055 74.3541 113.117 72.9769C113.191 71.5997 113.227 69.693 113.227 67.2586C113.227 64.8229 113.221 63.2061 113.209 62.4068C113.209 61.5951 113.203 60.9434 113.191 60.4511C113.154 59.0001 113.012 58.127 112.766 57.8318C112.532 57.5243 112.311 57.3214 112.101 57.223C112.101 61.503 112.028 63.9375 111.88 64.5278C111.707 65.0201 111.289 65.3707 110.625 65.5797C111.363 65.8377 111.781 66.1511 111.88 66.5207C112.028 67.111 112.101 69.2691 112.101 72.9952V75.3936ZM117.123 75.4674C117.123 76.328 117.449 77.0352 118.101 77.5889C118.729 78.1049 119.479 78.3634 120.353 78.3634C121.202 78.3634 121.916 78.1793 122.495 77.8097C123.602 77.0842 124.156 76.2543 124.156 75.3198V69.9149C124.156 68.7957 123.793 67.9533 123.067 67.3872C122.452 66.9079 121.645 66.6682 120.649 66.6682H117.123V75.4674ZM125.393 67.2397C125.688 67.9038 125.836 69.4409 125.836 71.8517C125.836 74.9013 125.725 76.6911 125.503 77.2194C125.762 77.1704 126.027 76.857 126.297 76.279C126.568 75.7011 126.759 75.1043 126.87 74.4898C126.98 73.8747 127.054 73.4568 127.091 73.2348C127.14 73.0141 127.208 72.8169 127.294 72.6445C127.491 72.2762 127.823 72.0117 128.291 71.8517C127.553 71.618 127.115 71.1505 126.98 70.4498C126.857 69.7485 126.734 69.2078 126.611 68.8264C126.488 68.4451 126.359 68.144 126.223 67.9221C125.989 67.5289 125.712 67.3011 125.393 67.2397ZM138.06 80.6509C137.248 80.6509 136.528 80.4543 135.9 80.0606C135.273 80.4543 134.688 80.6509 134.146 80.6509C133.617 80.6509 133.18 80.6019 132.836 80.5033C132.491 80.4171 132.19 80.2943 131.931 80.1344C131.402 79.8144 131.138 79.4148 131.138 78.9354C131.138 78.6893 131.205 78.4744 131.34 78.2896C131.611 78.4986 131.956 78.6031 132.374 78.6031C133.47 78.6031 134.227 78.1362 134.645 77.2011V68.1806C134.645 67.6151 134.528 67.1966 134.294 66.9262C133.925 66.4711 133.291 66.0224 132.393 65.5797C133.229 65.1984 133.771 64.8601 134.017 64.565C134.436 64.0851 134.645 63.5443 134.645 62.9416V55.1569C134.227 54.21 133.47 53.7365 132.374 53.7365C131.956 53.7365 131.611 53.841 131.34 54.0501C131.205 53.8656 131.138 53.6566 131.138 53.4229C131.138 53.1769 131.205 52.9494 131.34 52.7404C131.488 52.5313 131.685 52.353 131.931 52.2054C132.497 51.8611 133.144 51.6889 133.87 51.6889C134.608 51.6889 135.285 51.8918 135.9 52.2977C136.54 51.8918 137.272 51.6889 138.097 51.6889C138.922 51.6889 139.672 51.9287 140.349 52.4083C141.654 51.9287 143.161 51.6889 144.872 51.6889C146.14 51.6889 147.223 51.8118 148.121 52.0578L149.764 52.5006C149.961 52.5497 150.151 52.5743 150.336 52.5743C150.681 52.5743 150.853 52.3284 150.853 51.8365C150.853 51.7135 150.81 51.5044 150.724 51.2093C151.068 51.1477 151.505 51.1171 152.035 51.1171C152.564 51.1171 153.013 51.2953 153.382 51.652C153.751 51.9963 153.936 52.5006 153.936 53.1647C153.936 53.8165 153.819 54.2961 153.585 54.6035C153.917 55.0954 154.083 55.6981 154.083 56.4113C154.083 57.1123 153.843 57.7026 153.364 58.1823C153.511 58.5512 153.585 58.914 153.585 59.2705C153.585 59.6152 153.524 59.9346 153.4 60.2298C153.29 60.5125 153.148 60.7528 152.976 60.9493C152.631 61.3059 152.28 61.4842 151.923 61.4842C151.407 61.4842 150.939 61.3738 150.521 61.1524C150.668 60.8573 150.742 60.4204 150.742 59.8425C150.742 58.4897 150.404 57.3029 149.727 56.2822C148.804 54.8803 147.419 54.1792 145.573 54.1792C144.638 54.1792 143.789 54.4068 143.026 54.8618C142.275 55.3168 141.746 55.9686 141.438 56.8172V63.9564C141.869 64.2267 142.269 64.3619 142.638 64.3619C143.019 64.3619 143.302 64.356 143.487 64.3436C143.684 64.3312 143.881 64.307 144.078 64.2698C144.583 64.196 144.97 64.0975 145.241 63.9747C145.758 63.7285 146.016 63.1264 146.016 62.1666C146.016 61.6258 145.887 61.2079 145.629 60.9127C145.875 60.7404 146.182 60.6542 146.551 60.6542C147.376 60.6542 147.973 60.9859 148.343 61.6506C148.478 61.8838 148.545 62.1424 148.545 62.4251C148.545 62.7079 148.471 63.0585 148.324 63.4764C148.829 64.0544 149.081 64.7432 149.081 65.5425C149.081 66.33 148.829 67.0124 148.324 67.5903C148.471 68.0082 148.545 68.3896 148.545 68.7343C148.545 69.0661 148.478 69.386 148.343 69.693C148.207 70.0005 148.041 70.2467 147.844 70.4309C147.462 70.7756 147.032 70.948 146.551 70.948C146.207 70.948 145.899 70.8494 145.629 70.6528C145.887 70.2219 146.016 69.7178 146.016 69.1399C146.016 67.9964 145.703 67.2892 145.075 67.0183C144.521 66.7969 143.887 66.6865 143.174 66.6865C142.459 66.6865 141.881 66.8158 141.438 67.0738V76.2974C142.152 77.5518 143.53 78.1793 145.573 78.1793C147.887 78.1793 149.463 77.4656 150.299 76.0388C151.271 74.4036 151.757 72.651 151.757 70.7815C151.757 70.2408 151.708 69.8223 151.61 69.5271C151.918 69.2196 152.237 69.0661 152.57 69.0661C152.902 69.0661 153.155 69.1151 153.326 69.2137C153.499 69.2998 153.653 69.4102 153.788 69.5454C154.083 69.8777 154.231 70.216 154.231 70.5601L154.12 71.4639C154.12 71.6977 154.182 71.8883 154.305 72.0359C154.551 72.2945 154.674 72.54 154.674 72.7738C154.674 72.9952 154.6 73.2661 154.452 73.5855C154.736 73.7454 154.988 73.9851 155.21 74.3051C155.444 74.6126 155.56 74.9326 155.56 75.2643C155.56 75.9656 155.265 76.5925 154.674 77.1462C154.933 77.5146 155.062 78.05 155.062 78.7507C155.062 79.4396 154.859 80.0234 154.452 80.5033C154.059 80.995 153.542 81.2412 152.902 81.2412C152.557 81.2412 152.201 81.204 151.831 81.1308C151.88 80.8598 151.905 80.5895 151.905 80.3185C151.905 79.753 151.646 79.4703 151.13 79.4703C150.551 79.4703 149.973 79.5871 149.395 79.8209C148.028 80.374 146.472 80.6509 144.724 80.6509C142.989 80.6509 141.512 80.4236 140.294 79.9685C139.654 80.4236 138.909 80.6509 138.06 80.6509ZM136.417 75.3936C137.032 75.1598 137.371 74.3541 137.432 72.9769C137.506 71.5997 137.543 69.693 137.543 67.2586C137.543 64.8229 137.537 63.2061 137.525 62.4068C137.525 61.5951 137.519 60.9434 137.506 60.4511C137.469 59.0001 137.328 58.127 137.082 57.8318C136.848 57.5243 136.626 57.3214 136.417 57.223C136.417 61.503 136.343 63.9375 136.195 64.5278C136.024 65.0201 135.605 65.3707 134.94 65.5797C135.679 65.8377 136.097 66.1511 136.195 66.5207C136.343 67.111 136.417 69.2691 136.417 72.9952V75.3936ZM141.069 75.2088C141.069 75.246 141.075 75.2767 141.087 75.3009L141.069 75.2088ZM163.022 80.0606C162.394 80.4543 161.681 80.6509 160.881 80.6509C160.081 80.6509 159.367 80.4543 158.739 80.0606C158.111 80.4543 157.527 80.6509 156.985 80.6509C156.456 80.6509 156.02 80.6019 155.675 80.5033C155.33 80.4171 155.029 80.2943 154.77 80.1344C154.241 79.8144 153.976 79.4148 153.976 78.9354C153.976 78.6893 154.044 78.4744 154.179 78.2896C154.45 78.4986 154.795 78.6031 155.213 78.6031C156.308 78.6031 157.065 78.1362 157.484 77.2011V68.1806C157.484 67.6151 157.367 67.1966 157.133 66.9262C156.764 66.4711 156.13 66.0224 155.232 65.5797C156.069 65.1984 156.61 64.8601 156.856 64.565C157.275 64.0851 157.484 63.5443 157.484 62.9416V55.1569C157.065 54.21 156.308 53.7365 155.213 53.7365C154.795 53.7365 154.45 53.841 154.179 54.0501C154.044 53.8656 153.976 53.6566 153.976 53.4229C153.976 53.1769 154.044 52.9494 154.179 52.7404C154.327 52.5313 154.524 52.353 154.77 52.2054C155.336 51.8611 155.982 51.6889 156.708 51.6889C157.447 51.6889 158.124 51.8918 158.739 52.2977C159.379 51.8918 160.093 51.6889 160.881 51.6889C161.668 51.6889 162.382 51.8918 163.022 52.2977C164.413 51.7688 165.951 51.5044 167.637 51.5044C169.335 51.5044 170.756 51.6581 171.901 51.9656C173.046 52.273 174.03 52.7096 174.855 53.2753C176.516 54.4191 177.55 56.0116 177.956 58.0532C178.116 58.9632 178.701 59.6518 179.71 60.1194C178.75 60.6601 178.122 61.5213 177.827 62.702C177.224 65.137 175.716 66.6559 173.304 67.2586C174.547 67.5903 175.563 68.2727 176.35 69.3057C177.162 70.376 177.569 71.6363 177.569 73.0873V74.9326C177.569 76.7035 178.141 77.8469 179.285 78.3634C179.63 78.5234 180.005 78.6031 180.411 78.6031C180.818 78.6031 181.156 78.4986 181.427 78.2896C181.562 78.4744 181.63 78.6893 181.63 78.9354C181.63 79.1692 181.568 79.3906 181.445 79.5995C181.322 79.8085 181.156 79.9868 180.946 80.1344C180.503 80.4785 179.987 80.6509 179.396 80.6509C178.806 80.6509 178.227 80.4909 177.661 80.171C176.627 80.7371 175.661 80.7925 174.763 80.3374C174.418 80.5464 174.055 80.6509 173.673 80.6509C173.292 80.6509 172.923 80.5647 172.566 80.3929C172.221 80.2205 171.914 79.9378 171.643 79.544C171.064 78.6952 170.775 77.3918 170.775 75.6333V74.2679C170.775 71.4273 169.963 69.5826 168.339 68.7343C167.797 68.451 167.163 68.3099 166.437 68.3099H164.277V77.2938C164.609 78.1669 165.243 78.6031 166.178 78.6031C166.597 78.6031 166.942 78.4986 167.212 78.2896C167.348 78.4744 167.415 78.7448 167.415 79.1013C167.415 79.4579 167.219 79.8085 166.825 80.1527C166.443 80.485 165.865 80.6509 165.09 80.6509C164.314 80.6509 163.625 80.4543 163.022 80.0606ZM167.822 53.9578C165.459 53.9578 164.277 54.8741 164.277 56.7065V64.2515C164.277 64.8908 164.53 65.3212 165.034 65.5425C165.514 65.7515 166.221 65.856 167.157 65.856C168.105 65.856 168.763 65.807 169.132 65.7084C169.514 65.598 169.84 65.4132 170.111 65.1553C170.664 64.6264 170.941 63.7409 170.941 62.4989V57.1123C170.941 55.5751 170.302 54.5912 169.021 54.1608C168.64 54.0255 168.24 53.9578 167.822 53.9578ZM172.178 55.1385C172.56 55.9994 172.751 57.3767 172.751 59.2705C172.751 62.5296 172.597 64.4788 172.289 65.1181C172.966 64.9829 173.452 64.0792 173.747 62.4068L173.895 61.6506C174.03 60.8508 174.424 60.3407 175.076 60.1194C174.596 59.9594 174.289 59.7687 174.153 59.5474C174.005 59.2894 173.87 58.8525 173.747 58.2376C173.637 57.6104 173.52 57.1062 173.396 56.725C173.274 56.3437 173.144 56.0424 173.009 55.821C172.775 55.4275 172.498 55.2 172.178 55.1385ZM159.256 75.3936C159.871 75.1598 160.21 74.3541 160.271 72.9769C160.345 71.5997 160.382 69.693 160.382 67.2586C160.382 64.8229 160.376 63.2061 160.364 62.4068C160.364 61.5951 160.357 60.9434 160.345 60.4511C160.308 59.0001 160.166 58.127 159.921 57.8318C159.687 57.5243 159.465 57.3214 159.256 57.223C159.256 61.503 159.182 63.9375 159.035 64.5278C158.862 65.0201 158.444 65.3707 157.779 65.5797C158.518 65.8377 158.936 66.1511 159.035 66.5207C159.182 67.111 159.256 69.2691 159.256 72.9952V75.3936ZM171.993 70.3388C172.486 70.8925 172.732 71.569 172.732 72.3683V74.8033C172.732 76.8446 173.138 77.9331 173.95 78.0683C174.172 78.1049 174.387 78.099 174.596 78.05C174.153 77.3611 173.932 76.6356 173.932 75.8729V73.2903C173.932 72.3187 173.796 71.6304 173.526 71.2242C173.058 70.5359 172.548 70.2408 171.993 70.3388Z" fill="#FFFEFE"/>
<path d="M214.633 79.8392C212.737 80.5033 210.861 80.8357 209.002 80.8357C207.156 80.8357 205.538 80.5712 204.147 80.0423C202.769 79.501 201.551 78.72 200.492 77.6993C198.24 75.5471 196.899 72.5648 196.468 68.7526C196.283 67.1535 195.655 66.0962 194.585 65.5797C195.655 65.0756 196.289 64.0178 196.487 62.4068C196.683 60.7835 197.151 59.2894 197.89 57.924C198.628 56.5466 199.576 55.3783 200.732 54.4191C203.095 52.4759 206.055 51.5044 209.611 51.5044C212.061 51.5044 214.116 52.064 215.777 53.1831C217.316 54.2162 218.27 55.5628 218.639 57.223C218.836 58.1577 219.088 58.7357 219.396 58.9571C219.518 59.0556 219.673 59.1477 219.857 59.2339C219.131 60.3159 218.392 60.7652 217.642 60.5804C217.457 60.5432 217.285 60.4942 217.125 60.4328C216.854 60.9741 216.503 61.4228 216.073 61.7793C215.642 62.1359 215.162 62.3454 214.633 62.4068C214.116 62.4558 213.79 62.4192 213.654 62.2958C213.962 61.8407 214.116 61.2628 214.116 60.5621C214.116 60.4759 214.097 60.3649 214.061 60.2298C213.999 60.2545 213.944 60.2669 213.894 60.2669C213.845 60.2669 213.753 60.2728 213.618 60.2852C213.482 60.2852 213.292 60.2363 213.045 60.1377C212.799 60.0391 212.571 59.9039 212.362 59.7321C211.895 59.3626 211.648 58.9571 211.624 58.5143C211.624 58.4159 211.642 58.3176 211.679 58.2192C212.442 58.4528 213.168 58.2807 213.857 57.7026C214.325 57.2968 214.547 56.8664 214.522 56.4113C214.497 55.9563 214.368 55.5812 214.135 55.286C213.913 54.9786 213.593 54.7142 213.175 54.4928C212.239 54.0009 211.039 53.755 209.575 53.755C206.239 53.755 204.572 55.6857 204.572 59.5474V62.6093C204.572 63.9995 205.249 64.9894 206.603 65.5797C205.249 66.2314 204.572 67.2952 204.572 68.7709V73.7148C204.572 75.2767 204.867 76.439 205.458 77.2011C206.049 77.9514 206.984 78.3268 208.264 78.3268C209.778 78.3268 210.781 77.6503 211.273 76.2974C211.433 75.8546 211.513 75.344 211.513 74.7661V70.5053C211.279 70.2715 210.953 70.1546 210.535 70.1546C210.116 70.1546 209.771 70.2591 209.501 70.4681C209.366 70.3329 209.298 70.0743 209.298 69.693C209.298 69.3122 209.458 68.9551 209.778 68.6234C210.098 68.2792 210.584 68.1068 211.236 68.1068C211.9 68.1068 212.449 68.2851 212.879 68.6416C213.47 68.2851 214.104 68.1068 214.78 68.1068C215.457 68.1068 216.073 68.2916 216.626 68.6599C217.143 68.2916 217.629 68.1068 218.085 68.1068C218.54 68.1068 218.897 68.1499 219.156 68.2361C219.414 68.3223 219.642 68.4392 219.839 68.5868C220.282 68.9185 220.503 69.3305 220.503 69.8223C220.503 70.1174 220.435 70.3329 220.3 70.4681C220.017 70.2591 219.654 70.1546 219.211 70.1546C218.768 70.1546 218.337 70.5725 217.919 71.409V77.4597C218.153 78.2218 218.663 78.6031 219.451 78.6031C219.746 78.6031 220.029 78.4986 220.3 78.2896C220.435 78.4744 220.503 78.6893 220.503 78.9354C220.503 79.4396 220.226 79.8516 219.673 80.171C219.118 80.4909 218.325 80.6509 217.291 80.6509C216.269 80.6509 215.383 80.3805 214.633 79.8392ZM200.64 75.3936C200.824 75.3198 200.917 75.1905 200.917 75.0058C200.917 74.7354 200.788 74.311 200.529 73.7331C200.271 73.1428 200.031 72.1528 199.809 70.7632C199.6 69.3612 199.495 67.7379 199.495 65.8932C199.495 62.9044 199.858 60.3531 200.584 58.2376C200.671 57.9301 200.714 57.6965 200.714 57.5367C200.714 57.3767 200.634 57.2722 200.474 57.223C199.896 57.9486 199.483 58.668 199.237 59.3815C198.782 60.6849 198.419 62.4499 198.148 64.6754C198.111 64.9953 197.748 65.297 197.058 65.5797C197.748 65.8873 198.111 66.2007 198.148 66.5207C198.591 70.3329 199.151 72.8783 199.828 74.1575C200.074 74.6126 200.345 75.0247 200.64 75.3936ZM213.414 76.5004C214.128 76.0577 214.485 75.2767 214.485 74.1575V73.1062C214.485 72.0607 214.128 71.3783 213.414 71.0584V76.5004ZM217.771 76.8322L217.716 76.4632L217.771 76.8322ZM223.737 77.5518C222.716 76.4939 221.885 75.2212 221.245 73.7331C220.618 72.2449 220.23 70.837 220.082 69.5088C219.934 68.1806 219.707 67.2645 219.399 66.7603C219.104 66.2438 218.68 65.8501 218.125 65.5797C219.196 65.0756 219.824 64.0426 220.009 62.4806C220.205 60.9063 220.642 59.437 221.319 58.0716C221.996 56.7065 222.857 55.5382 223.903 54.5666C226.106 52.5252 228.759 51.5044 231.86 51.5044C235.047 51.5044 237.687 52.4514 239.779 54.3453C241.958 56.3129 243.237 59.0674 243.619 62.6093C243.779 64.0851 244.407 65.0756 245.502 65.5797C244.431 66.1086 243.797 67.2273 243.601 68.9368C243.404 70.6463 243.016 72.2449 242.437 73.7331C241.859 75.2212 241.084 76.4939 240.112 77.5518C238.081 79.7406 235.336 80.8357 231.878 80.8357C228.568 80.8357 225.854 79.7406 223.737 77.5518ZM229.774 65.5797C228.42 66.2314 227.743 67.2952 227.743 68.7709V74.2496C227.743 76.2543 228.574 77.5394 230.235 78.1049C230.727 78.2773 231.263 78.3634 231.842 78.3634C232.42 78.3634 232.949 78.2773 233.429 78.1049C233.922 77.9331 234.346 77.6745 234.702 77.3304C235.441 76.6173 235.811 75.5902 235.811 74.2496V68.7709C235.811 67.2952 235.145 66.2314 233.816 65.5797C235.145 64.9646 235.811 63.9747 235.811 62.6093V58.2008C235.811 56.8356 235.41 55.7719 234.61 55.0094C233.859 54.3084 232.93 53.9578 231.823 53.9578C229.94 53.9578 228.685 54.745 228.057 56.3191C227.848 56.8479 227.743 57.4751 227.743 58.2008V62.6093C227.743 63.9995 228.42 64.9894 229.774 65.5797ZM237.508 57.223C237.853 58.2561 238.026 60.0332 238.026 62.5544C238.026 63.9806 237.964 64.7616 237.841 64.8973C237.718 65.0325 237.595 65.1429 237.472 65.2291C237.25 65.3767 237.01 65.4935 236.752 65.5797C237.49 65.9115 237.878 66.2314 237.915 66.539C238.038 67.7438 238.099 68.7892 238.099 69.6747C238.099 70.5478 238.087 71.2549 238.062 71.7963C238.038 72.3252 238.001 72.8169 237.951 73.272C237.853 74.2437 237.73 74.9509 237.583 75.3936C238.542 75.0984 239.078 73.6776 239.188 71.1322C239.25 69.7054 239.281 68.1192 239.281 66.3731C239.281 64.614 239.262 63.2982 239.226 62.4251C239.188 61.5397 239.133 60.8142 239.06 60.2481C238.912 58.9448 238.604 58.0408 238.136 57.5367C238.001 57.3891 237.792 57.2845 237.508 57.223ZM224.199 75.3936C224.384 75.3198 224.476 75.1905 224.476 75.0058C224.476 74.7354 224.346 74.311 224.088 73.7331C223.436 72.2449 223.11 69.5271 223.11 65.5797C223.11 62.702 223.454 60.2545 224.144 58.2376C224.229 57.9301 224.273 57.6965 224.273 57.5367C224.273 57.3767 224.193 57.2722 224.033 57.223C223.454 57.9486 223.042 58.668 222.796 59.3815C222.34 60.6849 221.978 62.4499 221.706 64.6754C221.67 64.9953 221.307 65.297 220.618 65.5797C221.307 65.8873 221.67 66.2007 221.706 66.5207C222.15 70.3329 222.716 72.8783 223.405 74.1575C223.639 74.6126 223.903 75.0247 224.199 75.3936Z" fill="#ED8235"/>
<path d="M10.6343 27.7445L276.461 28.3348" stroke="#ED8235" stroke-width="2"/>
<path d="M13.588 104.485L279.415 105.075" stroke="#ED8235" stroke-width="2"/>
<path d="M182.983 65.9091C183.244 65.7385 183.316 65.3885 183.146 65.1281C182.974 64.8672 182.625 64.7946 182.364 64.9658C182.103 65.137 182.03 65.4864 182.202 65.7474C182.372 66.0077 182.723 66.0803 182.983 65.9091Z" fill="white"/>
<path d="M183.922 82.3061C184.184 82.1349 184.256 81.7855 184.085 81.5245C183.914 81.2642 183.564 81.1916 183.303 81.3628C183.042 81.5334 182.97 81.8835 183.141 82.1438C183.312 82.4047 183.662 82.4773 183.922 82.3061Z" fill="white"/>
<path d="M196.949 60.6908C197.942 60.6341 198.699 59.7858 198.642 58.794C198.585 57.8046 197.734 57.0459 196.744 57.1025C195.751 57.1593 194.994 58.0077 195.051 58.9995C195.108 59.9913 195.957 60.748 196.949 60.6908ZM196.178 58.935C196.164 58.6891 196.285 58.465 196.48 58.3368C196.907 58.0569 197.485 58.3442 197.514 58.8585C197.536 59.2274 197.254 59.5432 196.885 59.5645C196.516 59.5857 196.2 59.303 196.178 58.935Z" fill="white"/>
<path d="M188.544 75.0648L194.154 64.9274C194.305 64.6547 194.206 64.3117 193.933 64.1606C193.661 64.0101 193.317 64.1087 193.166 64.3814L187.556 74.5188C187.405 74.7915 187.504 75.135 187.776 75.2856C188.049 75.4361 188.392 75.3381 188.544 75.0648Z" fill="#ED8235"/>
<path d="M181.896 91.5427C184.641 89.7422 186.23 86.5894 186.042 83.3138L186.035 83.1874C186.535 82.5688 187.032 81.9407 187.518 81.3138C187.708 81.0676 187.663 80.7135 187.417 80.5228C187.17 80.3321 186.815 80.377 186.624 80.6237C185.973 81.4637 185.428 82.1444 184.856 82.848C184.436 83.3622 183.728 83.5133 183.135 83.2146C182.443 82.8663 182.163 82.0204 182.512 81.3285C198.379 49.8336 180.01 86.293 195.861 54.8322C196.344 53.8733 197.517 53.4861 198.477 53.9688L199.818 54.6432C200.779 55.1271 201.166 56.2963 200.682 57.2577L197.973 62.6335C195.182 68.1735 191.901 73.5146 188.222 78.5092C188.037 78.7601 188.091 79.1131 188.342 79.2979C188.593 79.4827 188.946 79.4295 189.131 79.1781C192.848 74.1327 196.162 68.7373 198.982 63.1411L201.69 57.7652C202.455 56.2471 201.845 54.3997 200.326 53.6353L198.985 52.9609C197.469 52.1984 195.615 52.81 194.852 54.3248L185.45 72.9857L185.137 67.5136L187.659 65.6871C187.871 65.5337 187.989 65.2857 187.974 65.0248L187.225 51.9577C187.128 50.2646 185.671 48.966 183.976 49.0629C183.326 49.1002 183.558 49.0869 182.479 49.1487C180.784 49.2456 179.485 50.702 179.582 52.3951L180.945 76.1946C180.971 76.6303 181.459 76.8699 181.818 76.6344C181.981 76.5276 182.085 76.3387 182.073 76.1297L181.578 67.5041C182.345 67.9114 183.284 67.8583 183.997 67.3678L184.435 75.0016L182.256 79.3268L182.228 78.8351C182.21 78.524 181.943 78.2861 181.632 78.3038C181.32 78.3215 181.082 78.5883 181.101 78.8994L181.256 81.6137C181.211 81.9407 181.232 82.2701 181.311 82.5835L181.391 83.9767C181.49 85.7039 180.819 87.3686 179.549 88.5439C178.861 89.1802 178.735 90.2109 179.249 90.9937C179.828 91.8738 181.016 92.1206 181.896 91.5427ZM182.743 66.6458C182.094 66.683 181.506 66.1942 181.464 65.5065L180.709 52.3304C180.648 51.2585 181.47 50.3365 182.543 50.2751L183.016 50.248L183.456 57.9145C183.474 58.2256 183.741 58.4634 184.052 58.4455C184.363 58.4277 184.601 58.161 184.583 57.85L184.144 50.1862C185.172 50.1812 186.038 50.9847 186.098 52.0221L186.835 64.8902L185.06 66.1753L184.734 60.4854C184.716 60.1743 184.449 59.9364 184.138 59.9541C183.827 59.9724 183.589 60.2386 183.606 60.5497C183.895 65.5833 183.883 65.3589 183.883 65.3684C183.921 66.036 183.411 66.608 182.743 66.6458ZM180.316 89.3721C181.77 88.0256 182.569 86.1419 182.528 84.1703C183.293 84.5971 184.185 84.5965 184.918 84.2205C184.796 86.7842 183.449 89.1743 181.277 90.5988C180.916 90.8355 180.43 90.7345 180.193 90.3744C179.983 90.0539 180.034 89.6324 180.316 89.3721Z" fill="#ED8235"/>
<path d="M2.42433 127.242C2.41488 127.998 2.59446 128.598 2.96308 129.041C3.34114 129.485 3.88461 129.707 4.59348 129.707C5.3118 129.707 5.85054 129.518 6.20971 129.141C6.56887 128.753 6.74845 128.196 6.74845 127.469V120.683H7.7834L7.81175 127.412C7.82121 128.442 7.54711 129.235 6.98946 129.792C6.43182 130.35 5.63316 130.628 4.59348 130.628C3.5538 130.628 2.75987 130.34 2.21167 129.764C1.66348 129.178 1.39411 128.347 1.40356 127.27L1.44609 120.683L2.46687 120.513L2.42433 127.242ZM11.6452 124.083C11.6452 124.583 11.6074 125.004 11.5318 125.344H11.6169C11.7586 124.805 11.9949 124.385 12.3257 124.083C12.6565 123.781 13.0677 123.629 13.5592 123.629C14.7217 123.629 15.303 124.201 15.303 125.344H15.388C15.681 124.201 16.3332 123.629 17.3445 123.629C18.1007 123.629 18.6016 123.809 18.8473 124.168C19.0931 124.517 19.216 125.075 19.216 125.84C19.216 125.877 19.2065 126.354 19.1876 127.27C19.1781 128.177 19.1734 128.772 19.1734 129.056C19.1734 129.339 19.2018 129.542 19.2585 129.665C19.3246 129.788 19.5279 129.849 19.8681 129.849L19.8965 130.486C19.7641 130.543 19.5704 130.571 19.3152 130.571C18.8615 130.571 18.5496 130.468 18.3795 130.26C18.2188 130.052 18.1385 129.721 18.1385 129.268C18.1385 129.249 18.1479 128.73 18.1668 127.71C18.1857 126.68 18.1952 126.123 18.1952 126.038C18.1952 125.509 18.1385 125.112 18.025 124.848C17.9116 124.574 17.6423 124.437 17.2169 124.437C16.026 124.437 15.4306 125.75 15.4306 128.376V130.458H14.4523V126.293C14.4523 125.452 14.3815 124.942 14.2397 124.763C14.0506 124.546 13.7813 124.437 13.4316 124.437C12.2218 124.437 11.6169 125.788 11.6169 128.489V130.458H10.6386V123.799L11.6452 123.672V124.083ZM25.866 125.627V124.593C25.592 124.451 25.1808 124.38 24.6326 124.38C23.2338 124.38 22.5344 125.433 22.5344 127.54C22.5344 129.079 23.0022 129.849 23.9379 129.849C24.3349 129.849 24.6657 129.717 24.9303 129.452C25.2044 129.178 25.4076 128.81 25.54 128.347C25.7574 127.544 25.866 126.638 25.866 125.627ZM23.8387 130.628C23.0164 130.628 22.4162 130.345 22.0381 129.778C21.6601 129.211 21.471 128.409 21.471 127.37C21.471 126.321 21.7357 125.438 22.265 124.72C22.8037 123.993 23.5929 123.629 24.6326 123.629C25.0012 123.629 25.3651 123.667 25.7243 123.743C26.0929 123.818 26.4568 123.927 26.8159 124.069V127.667C26.8159 128.631 26.901 129.24 27.0711 129.495C27.2318 129.75 27.5012 129.877 27.8792 129.877L27.9076 130.515C27.7564 130.553 27.5673 130.571 27.3405 130.571C26.8396 130.571 26.4804 130.397 26.263 130.047C26.1023 129.792 26.022 129.49 26.022 129.141C26.022 129.027 26.0315 128.904 26.0504 128.772H25.9653C25.8046 129.339 25.5447 129.792 25.1855 130.132C24.8358 130.463 24.3869 130.628 23.8387 130.628ZM33.7658 124.083C33.7658 124.583 33.728 125.004 33.6524 125.344H33.7375C33.8698 124.815 34.125 124.399 34.5031 124.097C34.8906 123.785 35.3584 123.629 35.9066 123.629C36.6533 123.629 37.1684 123.818 37.452 124.196C37.7355 124.565 37.8773 125.122 37.8773 125.868C37.8773 125.896 37.8678 126.378 37.8489 127.313C37.8395 128.248 37.8347 128.843 37.8347 129.098C37.8347 129.353 37.8631 129.542 37.9198 129.665C37.986 129.788 38.1892 129.849 38.5294 129.849L38.5578 130.486C38.4255 130.543 38.2317 130.571 37.9765 130.571C37.5228 130.571 37.2109 130.468 37.0408 130.26C36.8801 130.052 36.7998 129.721 36.7998 129.268C36.7998 129.249 36.8092 128.739 36.8281 127.738C36.847 126.737 36.8565 126.217 36.8565 126.18C36.8565 125.632 36.7856 125.207 36.6438 124.905C36.5021 124.593 36.2185 124.437 35.7932 124.437C35.3773 124.437 35.0276 124.569 34.7441 124.834C34.47 125.098 34.262 125.443 34.1203 125.868C33.8651 126.69 33.7375 127.563 33.7375 128.489V130.458H32.7592V123.799L33.7658 123.672V124.083ZM42.9234 129.877C43.396 129.877 43.7835 129.731 44.0859 129.438C44.3884 129.145 44.5916 128.791 44.6955 128.376C44.809 127.96 44.8657 127.483 44.8657 126.945C44.8657 125.254 44.2655 124.409 43.0651 124.409C42.6209 124.409 42.2523 124.55 41.9593 124.834C41.43 125.334 41.1654 126.132 41.1654 127.228C41.1654 128.994 41.7514 129.877 42.9234 129.877ZM45.929 126.959C45.929 127.998 45.6643 128.871 45.135 129.58C44.6152 130.279 43.8591 130.628 42.8667 130.628C41.8837 130.628 41.1843 130.345 40.7684 129.778C40.3525 129.202 40.1446 128.361 40.1446 127.256C40.1446 126.151 40.3856 125.273 40.8676 124.621C41.3497 123.96 42.0774 123.629 43.051 123.629C44.0245 123.629 44.7475 123.927 45.2201 124.522C45.6927 125.108 45.929 125.92 45.929 126.959ZM51.3664 125.627C51.461 125.315 51.5082 124.98 51.5082 124.621C51.5082 124.262 51.4657 123.965 51.3806 123.729L52.2454 123.629C52.4439 123.743 52.5432 124.012 52.5432 124.437C52.5432 124.853 52.477 125.278 52.3447 125.712C52.2124 126.137 51.943 126.808 51.5366 127.724L50.3315 130.458H49.4383L48.0489 125.811C47.7654 124.867 47.5102 124.196 47.2833 123.799L48.0206 123.658C48.1623 123.658 48.2758 123.729 48.3608 123.87C48.4553 124.012 48.5688 124.295 48.7011 124.72L50.0621 129.226H50.1472C50.1188 129.15 50.1046 129.051 50.1046 128.928C50.1046 128.796 50.1472 128.631 50.2322 128.432C50.9033 126.874 51.2814 125.939 51.3664 125.627ZM58.5018 125.627V124.593C58.2277 124.451 57.8166 124.38 57.2684 124.38C55.8695 124.38 55.1701 125.433 55.1701 127.54C55.1701 129.079 55.638 129.849 56.5737 129.849C56.9707 129.849 57.3015 129.717 57.5661 129.452C57.8402 129.178 58.0434 128.81 58.1757 128.347C58.3931 127.544 58.5018 126.638 58.5018 125.627ZM56.4744 130.628C55.6522 130.628 55.052 130.345 54.6739 129.778C54.2958 129.211 54.1068 128.409 54.1068 127.37C54.1068 126.321 54.3715 125.438 54.9007 124.72C55.4395 123.993 56.2287 123.629 57.2684 123.629C57.637 123.629 58.0009 123.667 58.36 123.743C58.7287 123.818 59.0927 123.927 59.4518 124.069V127.667C59.4518 128.631 59.5369 129.24 59.707 129.495C59.8677 129.75 60.1371 129.877 60.5151 129.877L60.5435 130.515C60.3923 130.553 60.2032 130.571 59.9764 130.571C59.4754 130.571 59.1163 130.397 58.8988 130.047C58.7381 129.792 58.6578 129.49 58.6578 129.141C58.6578 129.027 58.6672 128.904 58.6861 128.772H58.6011C58.4404 129.339 58.1805 129.792 57.8213 130.132C57.4716 130.463 57.0226 130.628 56.4744 130.628ZM68.7977 125.259C68.7977 124.985 68.7126 124.777 68.5425 124.635C68.3724 124.494 68.1455 124.423 67.862 124.423C67.2949 124.423 66.8507 124.659 66.5293 125.131C66.208 125.594 66.0236 126.156 65.9764 126.817C67.8573 126.817 68.7977 126.298 68.7977 125.259ZM67.5784 130.628C65.8015 130.628 64.9131 129.495 64.9131 127.228C64.9131 126.189 65.173 125.33 65.6928 124.65C66.2221 123.969 66.9641 123.629 67.9187 123.629C68.5047 123.629 68.9678 123.771 69.3081 124.054C69.6578 124.328 69.8326 124.711 69.8326 125.202C69.8326 125.684 69.7145 126.08 69.4782 126.392C69.2514 126.694 68.9395 126.926 68.5425 127.086C67.7958 127.389 66.931 127.54 65.948 127.54C65.948 129.041 66.5482 129.792 67.7486 129.792C68.3535 129.792 68.9253 129.627 69.464 129.296L69.62 129.849C69.3837 130.085 69.0718 130.274 68.6843 130.416C68.3062 130.557 67.9376 130.628 67.5784 130.628ZM76.3631 130.472C76.3064 130.538 76.1268 130.571 75.8244 130.571C75.5219 130.571 75.2526 130.463 75.0163 130.246C74.78 130.028 74.5248 129.66 74.2507 129.141L73.5135 127.738L71.8972 130.458H70.763L73.0031 127.001L71.9681 125.06C71.8263 124.786 71.6798 124.565 71.5286 124.395C71.3868 124.224 71.2403 124.102 71.0891 124.026L71.6279 123.629C71.9965 123.629 72.2753 123.771 72.4643 124.054C72.5683 124.215 72.9653 124.942 73.6552 126.236L75.0588 123.799H76.193L74.1656 127.001L75.0163 128.546C75.2526 128.98 75.4652 129.306 75.6542 129.523C75.8433 129.731 76.0654 129.835 76.3206 129.835L76.3631 130.472ZM78.8902 123.672C79.0793 123.748 79.1738 123.969 79.1738 124.338C79.1738 124.697 79.1407 125.051 79.0745 125.4H79.1596C79.481 124.22 80.1946 123.629 81.3004 123.629C82.1227 123.629 82.6992 123.899 83.03 124.437C83.3609 124.966 83.5263 125.764 83.5263 126.831C83.5263 127.899 83.2616 128.801 82.7323 129.537C82.2125 130.265 81.4233 130.628 80.3647 130.628C79.9583 130.628 79.5471 130.543 79.1313 130.373V133.688H78.1814V125.882C78.1814 124.928 78.1294 124.224 78.0254 123.771L78.8902 123.672ZM79.1313 128.206V129.665C79.4054 129.806 79.8165 129.877 80.3647 129.877C81.7635 129.877 82.4629 128.772 82.4629 126.562C82.4629 125.145 82.0187 124.437 81.1303 124.437C80.7617 124.437 80.4403 124.56 80.1662 124.805C79.8921 125.041 79.6842 125.358 79.5424 125.755C79.2683 126.51 79.1313 127.327 79.1313 128.206ZM89.1736 125.259C89.1736 124.985 89.0885 124.777 88.9184 124.635C88.7483 124.494 88.5214 124.423 88.2379 124.423C87.6708 124.423 87.2266 124.659 86.9052 125.131C86.5839 125.594 86.3995 126.156 86.3523 126.817C88.2332 126.817 89.1736 126.298 89.1736 125.259ZM87.9543 130.628C86.1774 130.628 85.289 129.495 85.289 127.228C85.289 126.189 85.5489 125.33 86.0687 124.65C86.598 123.969 87.34 123.629 88.2946 123.629C88.8806 123.629 89.3437 123.771 89.684 124.054C90.0337 124.328 90.2085 124.711 90.2085 125.202C90.2085 125.684 90.0904 126.08 89.8541 126.392C89.6273 126.694 89.3154 126.926 88.9184 127.086C88.1717 127.389 87.3069 127.54 86.3239 127.54C86.3239 129.041 86.9241 129.792 88.1245 129.792C88.7294 129.792 89.3012 129.627 89.8399 129.296L89.9959 129.849C89.7596 130.085 89.4477 130.274 89.0602 130.416C88.6821 130.557 88.3135 130.628 87.9543 130.628ZM92.7835 123.672C92.9726 123.748 93.0671 123.993 93.0671 124.409C93.0671 124.815 93.034 125.193 92.9678 125.542H93.0529C93.2608 124.871 93.5018 124.385 93.7759 124.083C94.05 123.781 94.4801 123.629 95.0661 123.629L95.5056 123.686L95.378 124.664C95.2551 124.635 95.1039 124.621 94.9243 124.621C94.5557 124.621 94.2391 124.744 93.9744 124.99C93.7192 125.226 93.5302 125.547 93.4073 125.953C93.171 126.68 93.0529 127.497 93.0529 128.404V130.458H92.0747V125.882C92.0747 124.928 92.0227 124.224 91.9187 123.771L92.7835 123.672ZM98.5431 130.571C98.1083 130.571 97.8059 130.468 97.6357 130.26C97.4656 130.052 97.3805 129.712 97.3805 129.24V123.799H98.4013V128.659C98.4013 129.159 98.4391 129.485 98.5147 129.636C98.5904 129.778 98.8077 129.849 99.1669 129.849L99.1953 130.472C98.9779 130.538 98.7605 130.571 98.5431 130.571ZM97.2813 121.575C97.2813 121.131 97.4987 120.909 97.9335 120.909C98.3304 120.909 98.5289 121.127 98.5289 121.561C98.5289 121.986 98.321 122.199 97.9051 122.199C97.4892 122.199 97.2813 121.991 97.2813 121.575ZM104.635 125.259C104.635 124.985 104.55 124.777 104.379 124.635C104.209 124.494 103.982 124.423 103.699 124.423C103.132 124.423 102.688 124.659 102.366 125.131C102.045 125.594 101.861 126.156 101.813 126.817C103.694 126.817 104.635 126.298 104.635 125.259ZM103.415 130.628C101.639 130.628 100.75 129.495 100.75 127.228C100.75 126.189 101.01 125.33 101.53 124.65C102.059 123.969 102.801 123.629 103.756 123.629C104.342 123.629 104.805 123.771 105.145 124.054C105.495 124.328 105.67 124.711 105.67 125.202C105.67 125.684 105.551 126.08 105.315 126.392C105.088 126.694 104.776 126.926 104.379 127.086C103.633 127.389 102.768 127.54 101.785 127.54C101.785 129.041 102.385 129.792 103.586 129.792C104.19 129.792 104.762 129.627 105.301 129.296L105.457 129.849C105.221 130.085 104.909 130.274 104.521 130.416C104.143 130.557 103.775 130.628 103.415 130.628ZM101.785 122.666L102.82 121.249L103.812 121.122C104.011 121.188 104.176 121.325 104.309 121.533L105.103 122.666L104.677 122.949L103.444 121.83L102.21 122.949L101.785 122.666ZM108.514 124.083C108.514 124.583 108.476 125.004 108.401 125.344H108.486C108.618 124.815 108.873 124.399 109.251 124.097C109.639 123.785 110.107 123.629 110.655 123.629C111.401 123.629 111.917 123.818 112.2 124.196C112.484 124.565 112.625 125.122 112.625 125.868C112.625 125.896 112.616 126.378 112.597 127.313C112.588 128.248 112.583 128.843 112.583 129.098C112.583 129.353 112.611 129.542 112.668 129.665C112.734 129.788 112.937 129.849 113.278 129.849L113.306 130.486C113.174 130.543 112.98 130.571 112.725 130.571C112.271 130.571 111.959 130.468 111.789 130.26C111.628 130.052 111.548 129.721 111.548 129.268C111.548 129.249 111.557 128.739 111.576 127.738C111.595 126.737 111.605 126.217 111.605 126.18C111.605 125.632 111.534 125.207 111.392 124.905C111.25 124.593 110.967 124.437 110.541 124.437C110.125 124.437 109.776 124.569 109.492 124.834C109.218 125.098 109.01 125.443 108.868 125.868C108.613 126.69 108.486 127.563 108.486 128.489V130.458H107.507V123.799L108.514 123.672V124.083ZM117.515 130.628C115.748 130.628 114.864 129.542 114.864 127.37C114.864 126.293 115.124 125.4 115.644 124.692C116.173 123.984 116.925 123.629 117.898 123.629C118.456 123.629 118.952 123.724 119.387 123.913L119.231 124.65C118.843 124.517 118.437 124.451 118.012 124.451C116.622 124.451 115.928 125.433 115.928 127.398C115.928 128.994 116.514 129.792 117.686 129.792C118.281 129.792 118.839 129.627 119.359 129.296L119.514 129.849C119.278 130.085 118.971 130.274 118.593 130.416C118.224 130.557 117.865 130.628 117.515 130.628ZM122.55 130.571C122.115 130.571 121.813 130.468 121.643 130.26C121.473 130.052 121.388 129.712 121.388 129.24V123.799H122.408V128.659C122.408 129.159 122.446 129.485 122.522 129.636C122.597 129.778 122.815 129.849 123.174 129.849L123.202 130.472C122.985 130.538 122.768 130.571 122.55 130.571ZM121.288 121.575C121.288 121.131 121.506 120.909 121.941 120.909C122.338 120.909 122.536 121.127 122.536 121.561C122.536 121.986 122.328 122.199 121.912 122.199C121.496 122.199 121.288 121.991 121.288 121.575ZM129.138 125.627V124.593C128.864 124.451 128.453 124.38 127.905 124.38C126.506 124.38 125.806 125.433 125.806 127.54C125.806 129.079 126.274 129.849 127.21 129.849C127.607 129.849 127.938 129.717 128.202 129.452C128.476 129.178 128.68 128.81 128.812 128.347C129.029 127.544 129.138 126.638 129.138 125.627ZM127.111 130.628C126.288 130.628 125.688 130.345 125.31 129.778C124.932 129.211 124.743 128.409 124.743 127.37C124.743 126.321 125.008 125.438 125.537 124.72C126.076 123.993 126.865 123.629 127.905 123.629C128.273 123.629 128.637 123.667 128.996 123.743C129.365 123.818 129.729 123.927 130.088 124.069V127.667C130.088 128.631 130.173 129.24 130.343 129.495C130.504 129.75 130.773 129.877 131.151 129.877L131.18 130.515C131.028 130.553 130.839 130.571 130.612 130.571C130.111 130.571 129.752 130.397 129.535 130.047C129.374 129.792 129.294 129.49 129.294 129.141C129.294 129.027 129.303 128.904 129.322 128.772H129.237C129.077 129.339 128.817 129.792 128.457 130.132C128.108 130.463 127.659 130.628 127.111 130.628ZM136.768 123.672C136.957 123.748 137.052 123.969 137.052 124.338C137.052 124.697 137.019 125.051 136.953 125.4H137.038C137.359 124.22 138.073 123.629 139.179 123.629C140.001 123.629 140.577 123.899 140.908 124.437C141.239 124.966 141.404 125.764 141.404 126.831C141.404 127.899 141.14 128.801 140.61 129.537C140.091 130.265 139.301 130.628 138.243 130.628C137.836 130.628 137.425 130.543 137.009 130.373V133.688H136.06V125.882C136.06 124.928 136.008 124.224 135.904 123.771L136.768 123.672ZM137.009 128.206V129.665C137.283 129.806 137.695 129.877 138.243 129.877C139.642 129.877 140.341 128.772 140.341 126.562C140.341 125.145 139.897 124.437 139.008 124.437C138.64 124.437 138.318 124.56 138.044 124.805C137.77 125.041 137.562 125.358 137.421 125.755C137.146 126.51 137.009 127.327 137.009 128.206ZM147.548 125.627V124.593C147.274 124.451 146.863 124.38 146.315 124.38C144.916 124.38 144.216 125.433 144.216 127.54C144.216 129.079 144.684 129.849 145.62 129.849C146.017 129.849 146.348 129.717 146.612 129.452C146.886 129.178 147.09 128.81 147.222 128.347C147.439 127.544 147.548 126.638 147.548 125.627ZM145.521 130.628C144.698 130.628 144.098 130.345 143.72 129.778C143.342 129.211 143.153 128.409 143.153 127.37C143.153 126.321 143.418 125.438 143.947 124.72C144.486 123.993 145.275 123.629 146.315 123.629C146.683 123.629 147.047 123.667 147.406 123.743C147.775 123.818 148.139 123.927 148.498 124.069V127.667C148.498 128.631 148.583 129.24 148.753 129.495C148.914 129.75 149.183 129.877 149.561 129.877L149.589 130.515C149.438 130.553 149.249 130.571 149.022 130.571C148.521 130.571 148.162 130.397 147.945 130.047C147.784 129.792 147.704 129.49 147.704 129.141C147.704 129.027 147.713 128.904 147.732 128.772H147.647C147.487 129.339 147.227 129.792 146.867 130.132C146.518 130.463 146.069 130.628 145.521 130.628ZM152.06 123.672C152.249 123.748 152.343 123.993 152.343 124.409C152.343 124.815 152.31 125.193 152.244 125.542H152.329C152.537 124.871 152.778 124.385 153.052 124.083C153.326 123.781 153.756 123.629 154.342 123.629L154.782 123.686L154.654 124.664C154.531 124.635 154.38 124.621 154.201 124.621C153.832 124.621 153.515 124.744 153.251 124.99C152.996 125.226 152.807 125.547 152.684 125.953C152.447 126.68 152.329 127.497 152.329 128.404V130.458H151.351V125.882C151.351 124.928 151.299 124.224 151.195 123.771L152.06 123.672ZM160.528 125.627V124.593C160.254 124.451 159.843 124.38 159.295 124.38C157.896 124.38 157.196 125.433 157.196 127.54C157.196 129.079 157.664 129.849 158.6 129.849C158.997 129.849 159.328 129.717 159.592 129.452C159.866 129.178 160.07 128.81 160.202 128.347C160.419 127.544 160.528 126.638 160.528 125.627ZM158.501 130.628C157.678 130.628 157.078 130.345 156.7 129.778C156.322 129.211 156.133 128.409 156.133 127.37C156.133 126.321 156.398 125.438 156.927 124.72C157.466 123.993 158.255 123.629 159.295 123.629C159.663 123.629 160.027 123.667 160.386 123.743C160.755 123.818 161.119 123.927 161.478 124.069V127.667C161.478 128.631 161.563 129.24 161.733 129.495C161.894 129.75 162.163 129.877 162.541 129.877L162.57 130.515C162.418 130.553 162.229 130.571 162.002 130.571C161.501 130.571 161.142 130.397 160.925 130.047C160.764 129.792 160.684 129.49 160.684 129.141C160.684 129.027 160.693 128.904 160.712 128.772H160.627C160.467 129.339 160.207 129.792 159.847 130.132C159.498 130.463 159.049 130.628 158.501 130.628ZM167.421 124.777C167.421 124.324 167.364 123.988 167.251 123.771L168.059 123.629C168.22 123.667 168.319 123.762 168.357 123.913C168.404 124.064 168.428 124.22 168.428 124.38C168.428 124.494 168.409 125.145 168.371 126.335C168.333 127.516 168.314 128.172 168.314 128.305C168.314 128.437 168.319 128.588 168.328 128.758C168.347 128.919 168.395 129.089 168.47 129.268C168.603 129.636 168.924 129.821 169.434 129.821C169.812 129.821 170.134 129.688 170.398 129.424C170.672 129.15 170.871 128.791 170.994 128.347C171.23 127.544 171.348 126.666 171.348 125.712V123.799H172.298V127.667C172.298 128.508 172.36 129.089 172.482 129.41C172.605 129.721 172.879 129.877 173.305 129.877L173.333 130.515C173.182 130.553 172.993 130.571 172.766 130.571C172.293 130.571 171.963 130.435 171.774 130.161C171.594 129.877 171.504 129.551 171.504 129.183C171.504 129.079 171.509 128.971 171.518 128.857H171.433C171.282 129.433 171.003 129.873 170.597 130.175C170.2 130.477 169.675 130.628 169.023 130.628C168.38 130.628 167.932 130.43 167.676 130.033C167.421 129.636 167.294 129.093 167.294 128.404C167.294 128.319 167.312 127.71 167.35 126.576C167.398 125.443 167.421 124.843 167.421 124.777ZM176.129 124.083C176.129 124.583 176.091 125.004 176.016 125.344H176.101C176.242 124.805 176.479 124.385 176.81 124.083C177.14 123.781 177.551 123.629 178.043 123.629C179.206 123.629 179.787 124.201 179.787 125.344H179.872C180.165 124.201 180.817 123.629 181.828 123.629C182.584 123.629 183.085 123.809 183.331 124.168C183.577 124.517 183.7 125.075 183.7 125.84C183.7 125.877 183.69 126.354 183.671 127.27C183.662 128.177 183.657 128.772 183.657 129.056C183.657 129.339 183.686 129.542 183.742 129.665C183.808 129.788 184.012 129.849 184.352 129.849L184.38 130.486C184.248 130.543 184.054 130.571 183.799 130.571C183.345 130.571 183.033 130.468 182.863 130.26C182.703 130.052 182.622 129.721 182.622 129.268C182.622 129.249 182.632 128.73 182.651 127.71C182.67 126.68 182.679 126.123 182.679 126.038C182.679 125.509 182.622 125.112 182.509 124.848C182.395 124.574 182.126 124.437 181.701 124.437C180.51 124.437 179.914 125.75 179.914 128.376V130.458H178.936V126.293C178.936 125.452 178.865 124.942 178.724 124.763C178.534 124.546 178.265 124.437 177.915 124.437C176.706 124.437 176.101 125.788 176.101 128.489V130.458H175.122V123.799L176.129 123.672V124.083ZM190.35 125.627V124.593C190.075 124.451 189.664 124.38 189.116 124.38C187.717 124.38 187.018 125.433 187.018 127.54C187.018 129.079 187.486 129.849 188.421 129.849C188.818 129.849 189.149 129.717 189.414 129.452C189.688 129.178 189.891 128.81 190.023 128.347C190.241 127.544 190.35 126.638 190.35 125.627ZM188.322 130.628C187.5 130.628 186.9 130.345 186.522 129.778C186.144 129.211 185.955 128.409 185.955 127.37C185.955 126.321 186.219 125.438 186.749 124.72C187.287 123.993 188.076 123.629 189.116 123.629C189.485 123.629 189.849 123.667 190.208 123.743C190.576 123.818 190.94 123.927 191.299 124.069V127.667C191.299 128.631 191.385 129.24 191.555 129.495C191.715 129.75 191.985 129.877 192.363 129.877L192.391 130.515C192.24 130.553 192.051 130.571 191.824 130.571C191.323 130.571 190.964 130.397 190.747 130.047C190.586 129.792 190.506 129.49 190.506 129.141C190.506 129.027 190.515 128.904 190.534 128.772H190.449C190.288 129.339 190.028 129.792 189.669 130.132C189.319 130.463 188.87 130.628 188.322 130.628ZM201.142 125.627V124.593C200.867 124.451 200.456 124.38 199.908 124.38C198.509 124.38 197.81 125.433 197.81 127.54C197.81 129.079 198.278 129.849 199.213 129.849C199.61 129.849 199.941 129.717 200.206 129.452C200.48 129.178 200.683 128.81 200.815 128.347C201.033 127.544 201.142 126.638 201.142 125.627ZM199.114 130.628C198.292 130.628 197.692 130.345 197.314 129.778C196.936 129.211 196.747 128.409 196.747 127.37C196.747 126.321 197.011 125.438 197.54 124.72C198.079 123.993 198.868 123.629 199.908 123.629C200.277 123.629 200.641 123.667 201 123.743C201.368 123.818 201.732 123.927 202.091 124.069V127.667C202.091 128.631 202.176 129.24 202.347 129.495C202.507 129.75 202.777 129.877 203.155 129.877L203.183 130.515C203.032 130.553 202.843 130.571 202.616 130.571C202.115 130.571 201.756 130.397 201.539 130.047C201.378 129.792 201.297 129.49 201.297 129.141C201.297 129.027 201.307 128.904 201.326 128.772H201.241C201.08 129.339 200.82 129.792 200.461 130.132C200.111 130.463 199.662 130.628 199.114 130.628ZM205.923 124.083C205.923 124.583 205.885 125.004 205.809 125.344H205.895C206.027 124.815 206.282 124.399 206.66 124.097C207.048 123.785 207.515 123.629 208.064 123.629C208.81 123.629 209.325 123.818 209.609 124.196C209.893 124.565 210.034 125.122 210.034 125.868C210.034 125.896 210.025 126.378 210.006 127.313C209.997 128.248 209.992 128.843 209.992 129.098C209.992 129.353 210.02 129.542 210.077 129.665C210.143 129.788 210.346 129.849 210.686 129.849L210.715 130.486C210.583 130.543 210.389 130.571 210.134 130.571C209.68 130.571 209.368 130.468 209.198 130.26C209.037 130.052 208.957 129.721 208.957 129.268C208.957 129.249 208.966 128.739 208.985 127.738C209.004 126.737 209.014 126.217 209.014 126.18C209.014 125.632 208.943 125.207 208.801 124.905C208.659 124.593 208.376 124.437 207.95 124.437C207.534 124.437 207.185 124.569 206.901 124.834C206.627 125.098 206.419 125.443 206.277 125.868C206.022 126.69 205.895 127.563 205.895 128.489V130.458H204.916V123.799L205.923 123.672V124.083ZM216.03 129.75L216.172 130.373C215.822 130.543 215.402 130.628 214.91 130.628C214.211 130.628 213.748 130.439 213.521 130.061C213.294 129.684 213.181 129.084 213.181 128.262V124.55H212.046V123.941L213.181 123.799V122.326L214.201 122.156V123.799H216.03V124.55H214.201V127.951C214.201 128.829 214.277 129.363 214.428 129.551C214.617 129.769 214.872 129.877 215.194 129.877C215.515 129.877 215.794 129.835 216.03 129.75ZM219.198 130.571C218.763 130.571 218.46 130.468 218.29 130.26C218.12 130.052 218.035 129.712 218.035 129.24V123.799H219.056V128.659C219.056 129.159 219.094 129.485 219.169 129.636C219.245 129.778 219.462 129.849 219.821 129.849L219.85 130.472C219.632 130.538 219.415 130.571 219.198 130.571ZM217.936 121.575C217.936 121.131 218.153 120.909 218.588 120.909C218.985 120.909 219.183 121.127 219.183 121.561C219.183 121.986 218.976 122.199 218.56 122.199C218.144 122.199 217.936 121.991 217.936 121.575ZM225.885 130.033C225.885 129.589 225.918 129.169 225.984 128.772H225.899C225.54 130.01 224.831 130.628 223.772 130.628C222.969 130.628 222.373 130.34 221.986 129.764C221.598 129.178 221.405 128.371 221.405 127.341C221.405 126.312 221.669 125.438 222.199 124.72C222.737 123.993 223.527 123.629 224.566 123.629C224.954 123.629 225.336 123.672 225.715 123.757C226.102 123.833 226.48 123.951 226.849 124.111L226.863 130.033C226.863 131.233 226.641 132.168 226.197 132.838C225.762 133.518 225.025 133.858 223.985 133.858C223.607 133.858 223.219 133.787 222.822 133.646C222.425 133.514 222.109 133.325 221.872 133.079L222.028 132.527C222.577 132.885 223.215 133.065 223.942 133.065C224.68 133.065 225.185 132.805 225.459 132.286C225.743 131.776 225.885 131.025 225.885 130.033ZM223.871 129.849C225.223 129.849 225.899 128.111 225.899 124.635C225.596 124.465 225.152 124.38 224.566 124.38C223.167 124.38 222.468 125.433 222.468 127.54C222.468 128.191 222.577 128.739 222.794 129.183C223.011 129.627 223.371 129.849 223.871 129.849ZM233.459 125.627V124.593C233.185 124.451 232.774 124.38 232.226 124.38C230.827 124.38 230.127 125.433 230.127 127.54C230.127 129.079 230.595 129.849 231.531 129.849C231.928 129.849 232.259 129.717 232.523 129.452C232.797 129.178 233.001 128.81 233.133 128.347C233.35 127.544 233.459 126.638 233.459 125.627ZM231.432 130.628C230.609 130.628 230.009 130.345 229.631 129.778C229.253 129.211 229.064 128.409 229.064 127.37C229.064 126.321 229.329 125.438 229.858 124.72C230.397 123.993 231.186 123.629 232.226 123.629C232.594 123.629 232.958 123.667 233.317 123.743C233.686 123.818 234.05 123.927 234.409 124.069V127.667C234.409 128.631 234.494 129.24 234.664 129.495C234.825 129.75 235.094 129.877 235.472 129.877L235.501 130.515C235.349 130.553 235.16 130.571 234.933 130.571C234.432 130.571 234.073 130.397 233.856 130.047C233.695 129.792 233.615 129.49 233.615 129.141C233.615 129.027 233.624 128.904 233.643 128.772H233.558C233.398 129.339 233.138 129.792 232.778 130.132C232.429 130.463 231.98 130.628 231.432 130.628ZM243.599 129.75L243.741 130.373C243.391 130.543 242.97 130.628 242.479 130.628C241.779 130.628 241.316 130.439 241.089 130.061C240.863 129.684 240.749 129.084 240.749 128.262V124.55H239.615V123.941L240.749 123.799V122.326L241.77 122.156V123.799H243.599V124.55H241.77V127.951C241.77 128.829 241.846 129.363 241.997 129.551C242.186 129.769 242.441 129.877 242.762 129.877C243.084 129.877 243.362 129.835 243.599 129.75ZM246.312 123.672C246.501 123.748 246.596 123.993 246.596 124.409C246.596 124.815 246.562 125.193 246.496 125.542H246.581C246.789 124.871 247.03 124.385 247.304 124.083C247.578 123.781 248.009 123.629 248.595 123.629L249.034 123.686L248.906 124.664C248.784 124.635 248.632 124.621 248.453 124.621C248.084 124.621 247.768 124.744 247.503 124.99C247.248 125.226 247.059 125.547 246.936 125.953C246.699 126.68 246.581 127.497 246.581 128.404V130.458H245.603V125.882C245.603 124.928 245.551 124.224 245.447 123.771L246.312 123.672ZM254.78 125.627V124.593C254.506 124.451 254.095 124.38 253.547 124.38C252.148 124.38 251.448 125.433 251.448 127.54C251.448 129.079 251.916 129.849 252.852 129.849C253.249 129.849 253.58 129.717 253.844 129.452C254.118 129.178 254.322 128.81 254.454 128.347C254.671 127.544 254.78 126.638 254.78 125.627ZM252.753 130.628C251.93 130.628 251.33 130.345 250.952 129.778C250.574 129.211 250.385 128.409 250.385 127.37C250.385 126.321 250.65 125.438 251.179 124.72C251.718 123.993 252.507 123.629 253.547 123.629C253.915 123.629 254.279 123.667 254.638 123.743C255.007 123.818 255.371 123.927 255.73 124.069V127.667C255.73 128.631 255.815 129.24 255.985 129.495C256.146 129.75 256.415 129.877 256.793 129.877L256.822 130.515C256.67 130.553 256.481 130.571 256.254 130.571C255.754 130.571 255.394 130.397 255.177 130.047C255.016 129.792 254.936 129.49 254.936 129.141C254.936 129.027 254.945 128.904 254.964 128.772H254.879C254.719 129.339 254.459 129.792 254.1 130.132C253.75 130.463 253.301 130.628 252.753 130.628ZM260.426 130.628C259.604 130.628 259.004 130.345 258.626 129.778C258.248 129.211 258.059 128.409 258.059 127.37C258.059 126.321 258.323 125.438 258.852 124.72C259.391 123.993 260.18 123.629 261.22 123.629C261.627 123.629 262.038 123.714 262.454 123.884V120.073L263.403 119.903V127.667C263.403 128.508 263.465 129.089 263.588 129.41C263.711 129.721 263.985 129.877 264.41 129.877L264.438 130.515C264.316 130.553 264.126 130.571 263.871 130.571C263.399 130.571 263.068 130.43 262.879 130.146C262.699 129.863 262.61 129.537 262.61 129.169C262.61 129.074 262.614 128.971 262.624 128.857H262.539C262.161 130.038 261.456 130.628 260.426 130.628ZM262.454 126.052V124.593C262.179 124.451 261.768 124.38 261.22 124.38C259.821 124.38 259.122 125.433 259.122 127.54C259.122 129.079 259.59 129.849 260.525 129.849C260.894 129.849 261.211 129.731 261.475 129.495C261.749 129.249 261.953 128.928 262.085 128.531C262.331 127.785 262.454 126.959 262.454 126.052ZM267.419 130.571C266.984 130.571 266.682 130.468 266.512 130.26C266.342 130.052 266.257 129.712 266.257 129.24V123.799H267.277V128.659C267.277 129.159 267.315 129.485 267.391 129.636C267.466 129.778 267.684 129.849 268.043 129.849L268.071 130.472C267.854 130.538 267.637 130.571 267.419 130.571ZM266.157 121.575C266.157 121.131 266.375 120.909 266.81 120.909C267.207 120.909 267.405 121.127 267.405 121.561C267.405 121.986 267.197 122.199 266.781 122.199C266.365 122.199 266.157 121.991 266.157 121.575ZM271.767 132.739C272.173 132.739 272.377 132.541 272.377 132.144C272.377 131.776 272.107 131.521 271.568 131.379L271.781 130.6C270.326 130.42 269.598 129.344 269.598 127.37C269.598 126.293 269.858 125.4 270.378 124.692C270.907 123.984 271.658 123.629 272.632 123.629C273.189 123.629 273.686 123.724 274.12 123.913L273.964 124.65C273.577 124.517 273.171 124.451 272.745 124.451C271.356 124.451 270.661 125.433 270.661 127.398C270.661 128.994 271.247 129.792 272.419 129.792C273.015 129.792 273.572 129.627 274.092 129.296L274.248 129.849C273.794 130.321 273.175 130.581 272.391 130.628L272.292 130.997C272.925 131.195 273.241 131.573 273.241 132.13C273.241 132.479 273.114 132.763 272.859 132.98C272.603 133.197 272.296 133.306 271.937 133.306C271.597 133.306 271.323 133.23 271.115 133.079L271.242 132.654C271.384 132.711 271.559 132.739 271.767 132.739ZM279.991 125.627V124.593C279.717 124.451 279.306 124.38 278.758 124.38C277.359 124.38 276.659 125.433 276.659 127.54C276.659 129.079 277.127 129.849 278.063 129.849C278.46 129.849 278.791 129.717 279.055 129.452C279.329 129.178 279.533 128.81 279.665 128.347C279.882 127.544 279.991 126.638 279.991 125.627ZM277.964 130.628C277.141 130.628 276.541 130.345 276.163 129.778C275.785 129.211 275.596 128.409 275.596 127.37C275.596 126.321 275.861 125.438 276.39 124.72C276.929 123.993 277.718 123.629 278.758 123.629C279.126 123.629 279.49 123.667 279.849 123.743C280.218 123.818 280.582 123.927 280.941 124.069V127.667C280.941 128.631 281.026 129.24 281.196 129.495C281.357 129.75 281.626 129.877 282.004 129.877L282.033 130.515C281.881 130.553 281.692 130.571 281.465 130.571C280.965 130.571 280.605 130.397 280.388 130.047C280.227 129.792 280.147 129.49 280.147 129.141C280.147 129.027 280.156 128.904 280.175 128.772H280.09C279.93 129.339 279.67 129.792 279.311 130.132C278.961 130.463 278.512 130.628 277.964 130.628ZM276.461 122.354C276.546 122.005 276.688 121.736 276.886 121.547C277.094 121.358 277.326 121.264 277.581 121.264C277.846 121.264 278.181 121.344 278.587 121.504C279.126 121.722 279.452 121.83 279.566 121.83C279.83 121.83 280.071 121.674 280.289 121.363L280.714 121.589C280.629 121.948 280.483 122.222 280.275 122.411C280.076 122.591 279.849 122.68 279.594 122.68C279.311 122.68 278.862 122.553 278.247 122.298C277.945 122.175 277.742 122.114 277.638 122.114C277.363 122.114 277.113 122.269 276.886 122.581L276.461 122.354ZM286.063 129.877C286.535 129.877 286.923 129.731 287.225 129.438C287.528 129.145 287.731 128.791 287.835 128.376C287.948 127.96 288.005 127.483 288.005 126.945C288.005 125.254 287.405 124.409 286.204 124.409C285.76 124.409 285.391 124.55 285.098 124.834C284.569 125.334 284.305 126.132 284.305 127.228C284.305 128.994 284.891 129.877 286.063 129.877ZM289.068 126.959C289.068 127.998 288.803 128.871 288.274 129.58C287.754 130.279 286.998 130.628 286.006 130.628C285.023 130.628 284.323 130.345 283.908 129.778C283.492 129.202 283.284 128.361 283.284 127.256C283.284 126.151 283.525 125.273 284.007 124.621C284.489 123.96 285.217 123.629 286.19 123.629C287.164 123.629 287.887 123.927 288.359 124.522C288.832 125.108 289.068 125.92 289.068 126.959ZM290.848 130.005C290.848 129.561 291.065 129.339 291.5 129.339C291.897 129.339 292.096 129.556 292.096 129.991C292.096 130.416 291.888 130.628 291.472 130.628C291.056 130.628 290.848 130.42 290.848 130.005Z" fill="#787475"/>
<path d="M94.2278 3.21128V7.24898H98.4952V3.21128H99.5444L99.5869 12.9868H98.4952V8.16987H94.2278V12.9868H93.122L93.1645 3.21128H94.2278ZM106.176 8.1557V7.12148C105.902 6.9798 105.491 6.90897 104.943 6.90897C103.544 6.90897 102.845 7.96208 102.845 10.0683C102.845 11.6078 103.313 12.3776 104.248 12.3776C104.645 12.3776 104.976 12.2454 105.241 11.9809C105.515 11.707 105.718 11.3386 105.85 10.8758C106.068 10.073 106.176 9.16631 106.176 8.1557ZM104.149 13.1568C103.327 13.1568 102.727 12.8734 102.349 12.3067C101.97 11.7401 101.781 10.9372 101.781 9.89829C101.781 8.8499 102.046 7.9668 102.575 7.24898C103.114 6.52172 103.903 6.15809 104.943 6.15809C105.312 6.15809 105.676 6.19587 106.035 6.27143C106.403 6.34699 106.767 6.45561 107.126 6.59728V10.1958C107.126 11.1592 107.211 11.7684 107.382 12.0234C107.542 12.2784 107.812 12.4059 108.19 12.4059L108.218 13.0435C108.067 13.0812 107.878 13.1001 107.651 13.1001C107.15 13.1001 106.791 12.9254 106.573 12.5759C106.413 12.3209 106.332 12.0187 106.332 11.6692C106.332 11.5559 106.342 11.4331 106.361 11.3009H106.276C106.115 11.8676 105.855 12.3209 105.496 12.6609C105.146 12.9915 104.697 13.1568 104.149 13.1568ZM110.859 13.1001C110.424 13.1001 110.121 12.9962 109.951 12.7884C109.781 12.5806 109.696 12.2406 109.696 11.7684V6.3281H110.717V11.1875C110.717 11.6881 110.755 12.014 110.83 12.1651C110.906 12.3067 111.123 12.3776 111.482 12.3776L111.511 13.0009C111.293 13.0671 111.076 13.1001 110.859 13.1001ZM109.597 4.10382C109.597 3.65991 109.814 3.43795 110.249 3.43795C110.646 3.43795 110.844 3.65519 110.844 4.08965C110.844 4.51468 110.636 4.72719 110.221 4.72719C109.805 4.72719 109.597 4.5194 109.597 4.10382ZM114.001 6.2006C114.19 6.27616 114.285 6.52172 114.285 6.9373C114.285 7.34343 114.252 7.72123 114.186 8.07069H114.271C114.479 7.4001 114.72 6.91369 114.994 6.61145C115.268 6.30921 115.698 6.15809 116.284 6.15809L116.723 6.21476L116.596 7.19231C116.473 7.16398 116.322 7.14981 116.142 7.14981C115.773 7.14981 115.457 7.2726 115.192 7.51816C114.937 7.75429 114.748 8.07542 114.625 8.48155C114.389 9.20881 114.271 10.0258 114.271 10.9325V12.9868H113.292V8.41071C113.292 7.45677 113.24 6.75313 113.136 6.29977L114.001 6.2006ZM120.427 13.1568C118.66 13.1568 117.776 12.0706 117.776 9.89829C117.776 8.82157 118.036 7.92902 118.556 7.22065C119.085 6.51228 119.836 6.15809 120.81 6.15809C121.368 6.15809 121.864 6.25254 122.299 6.44144L122.143 7.17815C121.755 7.04592 121.349 6.9798 120.923 6.9798C119.534 6.9798 118.839 7.96208 118.839 9.92662C118.839 11.5228 119.425 12.3209 120.597 12.3209C121.193 12.3209 121.75 12.1556 122.27 11.8251L122.426 12.3776C122.19 12.6137 121.883 12.8026 121.505 12.9443C121.136 13.086 120.777 13.1568 120.427 13.1568ZM123.987 7.30565C123.987 6.8523 123.931 6.517 123.817 6.29977L124.625 6.15809C124.786 6.19587 124.885 6.29032 124.923 6.44144C124.97 6.59256 124.994 6.7484 124.994 6.90897C124.994 7.02231 124.975 7.67401 124.937 8.86407C124.9 10.0447 124.881 10.7011 124.881 10.8333C124.881 10.9656 124.885 11.1167 124.895 11.2867C124.914 11.4473 124.961 11.6173 125.037 11.7967C125.169 12.1651 125.49 12.3492 126.001 12.3492C126.379 12.3492 126.7 12.217 126.965 11.9526C127.239 11.6787 127.437 11.3198 127.56 10.8758C127.796 10.073 127.915 9.19464 127.915 8.2407V6.3281H128.864V10.1958C128.864 11.0364 128.926 11.6173 129.049 11.9384C129.172 12.2501 129.446 12.4059 129.871 12.4059L129.899 13.0435C129.748 13.0812 129.559 13.1001 129.332 13.1001C128.86 13.1001 128.529 12.9632 128.34 12.6893C128.16 12.4059 128.071 12.0801 128.071 11.7117C128.071 11.6078 128.075 11.4992 128.085 11.3859H128C127.848 11.962 127.57 12.4012 127.163 12.7034C126.766 13.0057 126.242 13.1568 125.589 13.1568C124.947 13.1568 124.498 12.9584 124.243 12.5618C123.987 12.1651 123.86 11.622 123.86 10.9325C123.86 10.8475 123.879 10.2383 123.917 9.10491C123.964 7.97152 123.987 7.37177 123.987 7.30565ZM134.652 12.2784L134.794 12.9018C134.444 13.0718 134.023 13.1568 133.532 13.1568C132.832 13.1568 132.369 12.9679 132.142 12.5901C131.916 12.2123 131.802 11.6125 131.802 10.7908V7.07898H130.668V6.46978L131.802 6.3281V4.85469L132.823 4.68468V6.3281H134.652V7.07898H132.823V10.4792C132.823 11.3575 132.899 11.8912 133.05 12.0801C133.239 12.2973 133.494 12.4059 133.815 12.4059C134.137 12.4059 134.416 12.3634 134.652 12.2784ZM137.563 12.3776C137.979 12.3776 138.329 12.2831 138.613 12.0942C138.896 11.8959 139.038 11.6173 139.038 11.2584C139.038 10.8806 138.858 10.583 138.499 10.3658C138.32 10.2619 138.102 10.158 137.847 10.0541C137.592 9.94079 137.436 9.86995 137.379 9.84162C136.907 9.63383 136.538 9.38826 136.273 9.10491C136.018 8.82157 135.891 8.42016 135.891 7.90068C135.891 7.37177 136.103 6.95147 136.529 6.63979C136.954 6.31866 137.455 6.15809 138.031 6.15809C138.608 6.15809 139.128 6.27143 139.591 6.49811L139.435 7.13565C138.962 7.00342 138.542 6.9373 138.173 6.9373C137.814 6.9373 137.502 7.02231 137.237 7.19231C136.973 7.35288 136.84 7.57956 136.84 7.87235C136.84 8.16514 136.93 8.39654 137.11 8.56655C137.289 8.72712 137.474 8.8499 137.663 8.9349C137.861 9.01991 138.069 9.10964 138.287 9.20409C138.513 9.28909 138.66 9.35048 138.726 9.38826C138.792 9.42604 138.915 9.49688 139.095 9.60077C139.274 9.69522 139.397 9.78495 139.463 9.86995C139.539 9.95496 139.624 10.0683 139.718 10.21C139.898 10.4461 139.988 10.7814 139.988 11.2159C139.988 11.8392 139.756 12.3209 139.293 12.6609C138.83 12.9915 138.239 13.1568 137.521 13.1568C136.812 13.1568 136.184 12.9207 135.635 12.4484L135.791 11.8817C136.33 12.2123 136.921 12.3776 137.563 12.3776ZM148.535 7.23482C148.535 6.94202 148.431 6.71535 148.223 6.55478C148.025 6.39422 147.755 6.31394 147.415 6.31394C146.139 6.31394 145.373 7.19231 145.118 8.94907C147.396 8.92074 148.535 8.34932 148.535 7.23482ZM147.287 12.2217C147.93 12.2217 148.497 12.0328 148.989 11.655C149.48 11.2678 149.844 10.7908 150.08 10.2241C150.317 9.648 150.435 9.0388 150.435 8.39654L152.632 8.21237L152.547 8.97741L151.328 9.14742C151.101 10.2997 150.619 11.2536 149.882 12.0092C149.145 12.7648 148.237 13.1426 147.16 13.1426C146.092 13.1426 145.288 12.8262 144.75 12.1934C144.22 11.5512 143.956 10.6586 143.956 9.51577C143.956 8.37293 144.272 7.4001 144.906 6.59728C145.539 5.79446 146.394 5.39305 147.472 5.39305C148.029 5.39305 148.502 5.53001 148.889 5.80391C149.277 6.07781 149.471 6.46978 149.471 6.9798C149.471 7.14981 149.433 7.2726 149.357 7.34816L149.414 7.41899C149.707 7.15453 149.967 6.78146 150.194 6.29977C150.421 5.80863 150.567 5.36 150.633 4.95387L151.257 5.12387C151.257 5.70002 151.087 6.30921 150.747 6.95147C150.406 7.58428 149.995 8.10375 149.513 8.50988C148.54 9.32215 147.065 9.733 145.09 9.74245C145.09 11.3953 145.822 12.2217 147.287 12.2217ZM156.574 11.4709C157.321 11.9809 158.039 12.2359 158.729 12.2359C159.429 12.2359 159.972 12.0753 160.36 11.7542C160.757 11.4331 160.955 10.9892 160.955 10.4225C160.955 9.95968 160.813 9.59605 160.53 9.33159C160.227 9.0388 159.755 8.74601 159.112 8.45321C158.923 8.35876 158.791 8.29265 158.715 8.25487C158.072 7.95263 157.571 7.60317 157.212 7.20648C156.862 6.80979 156.688 6.24782 156.688 5.52056C156.688 4.7933 156.957 4.19827 157.496 3.73547C158.044 3.27267 158.701 3.04127 159.466 3.04127C160.232 3.04127 160.931 3.17822 161.565 3.45212L161.352 4.23133C160.785 4.04243 160.232 3.94798 159.693 3.94798C159.155 3.94798 158.701 4.08965 158.332 4.373C157.964 4.6469 157.779 5.01053 157.779 5.46389C157.779 5.91725 157.907 6.28088 158.162 6.55478C158.455 6.85702 158.975 7.17815 159.722 7.51816C160.402 7.83929 160.865 8.10847 161.111 8.32571C161.451 8.63739 161.664 8.88768 161.749 9.07658C161.929 9.52994 162.018 9.95968 162.018 10.3658C162.018 11.2253 161.721 11.9053 161.125 12.4059C160.539 12.9065 159.783 13.1568 158.857 13.1568C157.94 13.1568 157.104 12.8451 156.347 12.2217L156.574 11.4709ZM164.775 6.46978C164.775 6.97036 164.737 7.39066 164.662 7.73068H164.747C165.134 6.68229 165.857 6.15809 166.916 6.15809C167.663 6.15809 168.178 6.34699 168.461 6.72479C168.745 7.09314 168.887 7.65039 168.887 8.39654C168.887 8.42488 168.877 8.90657 168.858 9.84162C168.849 10.7767 168.844 11.3717 168.844 11.6267C168.844 11.8817 168.873 12.0706 168.929 12.1934C168.995 12.3162 169.199 12.3776 169.539 12.3776L169.567 13.0151C169.435 13.0718 169.241 13.1001 168.986 13.1001C168.532 13.1001 168.22 12.9962 168.05 12.7884C167.89 12.5806 167.809 12.2501 167.809 11.7967C167.809 11.7778 167.819 11.2678 167.838 10.2666C167.856 9.26548 167.866 8.74601 167.866 8.70823C167.866 8.16042 167.795 7.7354 167.653 7.43316C167.512 7.12148 167.2 6.96564 166.718 6.96564C166.236 6.96564 165.834 7.17815 165.512 7.60317C165.201 8.02819 164.993 8.50516 164.889 9.03408C164.794 9.55355 164.747 10.1202 164.747 10.7342V12.9868H163.769V2.60208L164.775 2.43207V6.46978ZM175.251 8.1557V7.12148C174.977 6.9798 174.566 6.90897 174.018 6.90897C172.619 6.90897 171.92 7.96208 171.92 10.0683C171.92 11.6078 172.387 12.3776 173.323 12.3776C173.72 12.3776 174.051 12.2454 174.315 11.9809C174.59 11.707 174.793 11.3386 174.925 10.8758C175.142 10.073 175.251 9.16631 175.251 8.1557ZM173.224 13.1568C172.402 13.1568 171.801 12.8734 171.423 12.3067C171.045 11.7401 170.856 10.9372 170.856 9.89829C170.856 8.8499 171.121 7.9668 171.65 7.24898C172.189 6.52172 172.978 6.15809 174.018 6.15809C174.386 6.15809 174.75 6.19587 175.109 6.27143C175.478 6.34699 175.842 6.45561 176.201 6.59728V10.1958C176.201 11.1592 176.286 11.7684 176.456 12.0234C176.617 12.2784 176.886 12.4059 177.264 12.4059L177.293 13.0435C177.142 13.0812 176.952 13.1001 176.726 13.1001C176.225 13.1001 175.866 12.9254 175.648 12.5759C175.487 12.3209 175.407 12.0187 175.407 11.6692C175.407 11.5559 175.417 11.4331 175.436 11.3009H175.35C175.19 11.8676 174.93 12.3209 174.571 12.6609C174.221 12.9915 173.772 13.1568 173.224 13.1568ZM181.975 8.1557C182.069 7.84402 182.117 7.50872 182.117 7.14981C182.117 6.79091 182.074 6.49339 181.989 6.25727L182.854 6.15809C183.052 6.27143 183.152 6.54061 183.152 6.96564C183.152 7.38121 183.085 7.80624 182.953 8.2407C182.821 8.66572 182.551 9.33631 182.145 10.2525L180.94 12.9868H180.047L178.657 8.33987C178.374 7.39538 178.119 6.72479 177.892 6.3281L178.629 6.18643C178.771 6.18643 178.884 6.25727 178.969 6.39894C179.064 6.54061 179.177 6.82396 179.309 7.24898L180.671 11.7542H180.756C180.727 11.6787 180.713 11.5795 180.713 11.4567C180.713 11.3245 180.756 11.1592 180.841 10.9608C181.512 9.40243 181.89 8.46738 181.975 8.1557ZM188.33 7.78735C188.33 7.51344 188.245 7.30565 188.075 7.16398C187.905 7.02231 187.678 6.95147 187.395 6.95147C186.828 6.95147 186.383 7.18759 186.062 7.65984C185.741 8.12264 185.556 8.68461 185.509 9.34576C187.39 9.34576 188.33 8.82629 188.33 7.78735ZM187.111 13.1568C185.334 13.1568 184.446 12.0234 184.446 9.75661C184.446 8.71767 184.706 7.85818 185.226 7.17815C185.755 6.49811 186.497 6.15809 187.451 6.15809C188.037 6.15809 188.501 6.29977 188.841 6.58312C189.191 6.85702 189.365 7.23954 189.365 7.73068C189.365 8.21237 189.247 8.60905 189.011 8.92074C188.784 9.22298 188.472 9.45438 188.075 9.61494C187.329 9.91718 186.464 10.0683 185.481 10.0683C185.481 11.57 186.081 12.3209 187.281 12.3209C187.886 12.3209 188.458 12.1556 188.997 11.8251L189.153 12.3776C188.916 12.6137 188.605 12.8026 188.217 12.9443C187.839 13.086 187.47 13.1568 187.111 13.1568ZM192.139 12.3776C192.555 12.3776 192.904 12.2831 193.188 12.0942C193.472 11.8959 193.613 11.6173 193.613 11.2584C193.613 10.8806 193.434 10.583 193.075 10.3658C192.895 10.2619 192.678 10.158 192.422 10.0541C192.167 9.94079 192.011 9.86995 191.955 9.84162C191.482 9.63383 191.113 9.38826 190.849 9.10491C190.594 8.82157 190.466 8.42016 190.466 7.90068C190.466 7.37177 190.679 6.95147 191.104 6.63979C191.529 6.31866 192.03 6.15809 192.607 6.15809C193.183 6.15809 193.703 6.27143 194.166 6.49811L194.01 7.13565C193.538 7.00342 193.117 6.9373 192.748 6.9373C192.389 6.9373 192.077 7.02231 191.813 7.19231C191.548 7.35288 191.416 7.57956 191.416 7.87235C191.416 8.16514 191.506 8.39654 191.685 8.56655C191.865 8.72712 192.049 8.8499 192.238 8.9349C192.437 9.01991 192.645 9.10964 192.862 9.20409C193.089 9.28909 193.235 9.35048 193.301 9.38826C193.368 9.42604 193.49 9.49688 193.67 9.60077C193.85 9.69522 193.972 9.78495 194.039 9.86995C194.114 9.95496 194.199 10.0683 194.294 10.21C194.473 10.4461 194.563 10.7814 194.563 11.2159C194.563 11.8392 194.332 12.3209 193.869 12.6609C193.405 12.9915 192.815 13.1568 192.096 13.1568C191.387 13.1568 190.759 12.9207 190.211 12.4484L190.367 11.8817C190.905 12.2123 191.496 12.3776 192.139 12.3776Z" fill="#787475"/>
</svg>
